<?xml version="1.0" encoding="UTF-8" standalone="no"?>
<!DOCTYPE svg PUBLIC "-//W3C//DTD SVG 1.1//EN"
 "http://www.w3.org/Graphics/SVG/1.1/DTD/svg11.dtd">
<!-- Generated by graphviz version 2.40.1 (20161225.0304)
 -->
<!-- Title: G Pages: 1 -->
<svg width="170pt" height="274pt"
 viewBox="0.00 0.00 170.00 274.00" xmlns="http://www.w3.org/2000/svg" xmlns:xlink="http://www.w3.org/1999/xlink">
<g id="graph0" class="graph" transform="scale(1 1) rotate(0) translate(4 270)">
<title>G</title>
<polygon fill="#ffffff" stroke="transparent" points="-4,4 -4,-270 166,-270 166,4 -4,4"/>
<!-- A0 -->
<g id="node1" class="node">
<title>A0</title>
<polygon fill="none" stroke="#000000" points="8,-234 8,-266 79,-266 79,-234 8,-234"/>
<text text-anchor="start" x="19.3345" y="-247" font-family="Helvetica,sans-Serif" font-size="10.00" fill="#000000">A.HotDrink</text>
<polygon fill="none" stroke="#000000" points="8,-190 8,-234 79,-234 79,-190 8,-190"/>
<text text-anchor="start" x="34.6165" y="-215" font-family="Helvetica,sans-Serif" font-size="10.00" fill="#000000">Milk</text>
<text text-anchor="start" x="30.1625" y="-203" font-family="Helvetica,sans-Serif" font-size="10.00" fill="#000000">Sugar</text>
<polygon fill="none" stroke="#000000" points="8,-134 8,-190 79,-190 79,-134 8,-134"/>
<text text-anchor="start" x="28.508" y="-171" font-family="Helvetica,sans-Serif" font-size="10.00" fill="#000000">Drink()</text>
<text text-anchor="start" x="17.94" y="-159" font-family="Helvetica,sans-Serif" font-size="10.00" fill="#000000">AddSugar()</text>
<text text-anchor="start" x="22.394" y="-147" font-family="Helvetica,sans-Serif" font-size="10.00" fill="#000000">AddMilk()</text>
</g>
<!-- A2 -->
<g id="node3" class="node">
<title>A2</title>
<polygon fill="none" stroke="#000000" points="0,-52 0,-84 78,-84 78,-52 0,-52"/>
<text text-anchor="start" x="9.8255" y="-65" font-family="Helvetica,sans-Serif" font-size="10.00" fill="#000000">CupOfCoffee</text>
<polygon fill="none" stroke="#000000" points="0,-20 0,-52 78,-52 78,-20 0,-20"/>
<text text-anchor="start" x="16.2135" y="-33" font-family="Helvetica,sans-Serif" font-size="10.00" fill="#000000">BeanType</text>
<polygon fill="none" stroke="#000000" points="0,0 0,-20 78,-20 78,0 0,0"/>
</g>
<!-- A0&#45;&gt;A2 -->
<g id="edge1" class="edge">
<title>A0&#45;&gt;A2</title>
<path fill="none" stroke="#000000" stroke-dasharray="5,2" d="M41.0667,-123.634C40.725,-110.1367 40.3807,-96.5368 40.0737,-84.4125"/>
<polygon fill="#000000" stroke="#000000" points="41.3268,-133.9093 36.5751,-124.0264 41.2002,-128.9109 41.0736,-123.9125 41.0736,-123.9125 41.0736,-123.9125 41.2002,-128.9109 45.5722,-123.7985 41.3268,-133.9093 41.3268,-133.9093"/>
</g>
<!-- A3 -->
<g id="node4" class="node">
<title>A3</title>
<polygon fill="none" stroke="#000000" points="96,-52 96,-84 162,-84 162,-52 96,-52"/>
<text text-anchor="start" x="105.939" y="-65" font-family="Helvetica,sans-Serif" font-size="10.00" fill="#000000">CupOfTea</text>
<polygon fill="none" stroke="#000000" points="96,-20 96,-52 162,-52 162,-20 96,-20"/>
<text text-anchor="start" x="108.1585" y="-33" font-family="Helvetica,sans-Serif" font-size="10.00" fill="#000000">LeafType</text>
<polygon fill="none" stroke="#000000" points="96,0 96,-20 162,-20 162,0 96,0"/>
</g>
<!-- A0&#45;&gt;A3 -->
<g id="edge3" class="edge">
<title>A0&#45;&gt;A3</title>
<path fill="none" stroke="#000000" stroke-dasharray="5,2" d="M83.5156,-125.5644C91.2469,-111.3603 99.0857,-96.9588 106.0277,-84.2049"/>
<polygon fill="#000000" stroke="#000000" points="78.7246,-134.3664 79.5529,-123.4318 81.115,-129.9748 83.5054,-125.5832 83.5054,-125.5832 83.5054,-125.5832 81.115,-129.9748 87.4578,-127.7345 78.7246,-134.3664 78.7246,-134.3664"/>
</g>
<!-- A1 -->
<g id="node2" class="node">
<title>A1</title>
<polygon fill="none" stroke="#000000" points="100,-228 100,-260 153,-260 153,-228 100,-228"/>
<text text-anchor="start" x="113.163" y="-241" font-family="Helvetica,sans-Serif" font-size="10.00" fill="#000000">I.ICup</text>
<polygon fill="none" stroke="#000000" points="100,-184 100,-228 153,-228 153,-184 100,-184"/>
<text text-anchor="start" x="114.5575" y="-209" font-family="Helvetica,sans-Serif" font-size="10.00" fill="#000000">Color</text>
<text text-anchor="start" x="109.553" y="-197" font-family="Helvetica,sans-Serif" font-size="10.00" fill="#000000">Volume</text>
<polygon fill="none" stroke="#000000" points="100,-140 100,-184 153,-184 153,-140 100,-140"/>
<text text-anchor="start" x="112.064" y="-165" font-family="Helvetica,sans-Serif" font-size="10.00" fill="#000000">Refill()</text>
<text text-anchor="start" x="110.3925" y="-153" font-family="Helvetica,sans-Serif" font-size="10.00" fill="#000000">Wash()</text>
</g>
<!-- A1&#45;&gt;A2 -->
<g id="edge2" class="edge">
<title>A1&#45;&gt;A2</title>
<path fill="none" stroke="#000000" d="M94.0264,-141.933C83.4874,-122.7932 71.9756,-101.8867 62.218,-84.166"/>
<polygon fill="none" stroke="#000000" points="91.0601,-143.8023 98.9496,-150.8739 97.192,-140.4259 91.0601,-143.8023"/>
</g>
<!-- A1&#45;&gt;A3 -->
<g id="edge4" class="edge">
<title>A1&#45;&gt;A3</title>
<path fill="none" stroke="#000000" d="M127.3342,-129.734C127.6281,-114.2535 127.9306,-98.3201 128.1959,-84.3508"/>
<polygon fill="none" stroke="#000000" points="123.8333,-129.7516 127.1427,-139.8162 130.832,-129.8845 123.8333,-129.7516"/>
</g>
</g>
</svg>
