<?xml version="1.0" encoding="UTF-8" standalone="no"?>
<!DOCTYPE svg PUBLIC "-//W3C//DTD SVG 1.1//EN"
 "http://www.w3.org/Graphics/SVG/1.1/DTD/svg11.dtd">
<!-- Generated by graphviz version 2.40.1 (20161225.0304)
 -->
<!-- Title: G Pages: 1 -->
<svg width="728pt" height="1020pt"
 viewBox="0.00 0.00 728.00 1020.00" xmlns="http://www.w3.org/2000/svg" xmlns:xlink="http://www.w3.org/1999/xlink">
<g id="graph0" class="graph" transform="scale(1 1) rotate(0) translate(4 1016)">
<title>G</title>
<polygon fill="#ffffff" stroke="transparent" points="-4,4 -4,-1016 724,-1016 724,4 -4,4"/>
<!-- A0 -->
<g id="node1" class="node">
<title>A0</title>
<polygon fill="none" stroke="#000000" points="106.5,-980 106.5,-1012 252.5,-1012 252.5,-980 106.5,-980"/>
<text text-anchor="start" x="147.406" y="-993" font-family="Helvetica,sans-Serif" font-size="10.00" fill="#000000">+A.Restaurant</text>
<polygon fill="none" stroke="#000000" points="106.5,-840 106.5,-980 252.5,-980 252.5,-840 106.5,-840"/>
<text text-anchor="start" x="145.6075" y="-961" font-family="Helvetica,sans-Serif" font-size="10.00" fill="#000000"> &#45;location:string</text>
<text text-anchor="start" x="148.666" y="-937" font-family="Helvetica,sans-Serif" font-size="10.00" fill="#000000">&#45;cuisine:string</text>
<text text-anchor="start" x="151.7205" y="-913" font-family="Helvetica,sans-Serif" font-size="10.00" fill="#000000">&#45;name:string</text>
<text text-anchor="start" x="139.213" y="-889" font-family="Helvetica,sans-Serif" font-size="10.00" fill="#000000">&#45;openTime:double</text>
<text text-anchor="start" x="134.7735" y="-865" font-family="Helvetica,sans-Serif" font-size="10.00" fill="#000000">&#45;closingTime:double</text>
<polygon fill="none" stroke="#000000" points="106.5,-664 106.5,-840 252.5,-840 252.5,-664 106.5,-664"/>
<text text-anchor="start" x="142.6825" y="-821" font-family="Helvetica,sans-Serif" font-size="10.00" fill="#000000"> +Location:string</text>
<text text-anchor="start" x="146.3015" y="-797" font-family="Helvetica,sans-Serif" font-size="10.00" fill="#000000">+Cuisine:string</text>
<text text-anchor="start" x="149.6355" y="-773" font-family="Helvetica,sans-Serif" font-size="10.00" fill="#000000">+Name:string</text>
<text text-anchor="start" x="136.848" y="-749" font-family="Helvetica,sans-Serif" font-size="10.00" fill="#000000">+OpenTime:double</text>
<text text-anchor="start" x="132.409" y="-725" font-family="Helvetica,sans-Serif" font-size="10.00" fill="#000000">+ClosingTime:double</text>
<text text-anchor="start" x="144.6365" y="-701" font-family="Helvetica,sans-Serif" font-size="10.00" fill="#000000">+DisplayInfo():v</text>
<text text-anchor="start" x="116.296" y="-677" font-family="Helvetica,sans-Serif" font-size="10.00" fill="#000000">+AnnounceHolidayTimes():a</text>
<polygon fill="none" stroke="#000000" points="106.5,-584 106.5,-664 252.5,-664 252.5,-584 106.5,-584"/>
<text text-anchor="start" x="145.6075" y="-645" font-family="Helvetica,sans-Serif" font-size="10.00" fill="#000000">(location:string,</text>
<text text-anchor="start" x="148.941" y="-633" font-family="Helvetica,sans-Serif" font-size="10.00" fill="#000000">cuisine:string,</text>
<text text-anchor="start" x="151.9955" y="-621" font-family="Helvetica,sans-Serif" font-size="10.00" fill="#000000">name:string,</text>
<text text-anchor="start" x="139.488" y="-609" font-family="Helvetica,sans-Serif" font-size="10.00" fill="#000000">openTime:double,</text>
<text text-anchor="start" x="134.7735" y="-597" font-family="Helvetica,sans-Serif" font-size="10.00" fill="#000000">closingTime:double)</text>
</g>
<!-- A3 -->
<g id="node4" class="node">
<title>A3</title>
<polygon fill="none" stroke="#000000" points=".5,-502 .5,-534 351.5,-534 351.5,-502 .5,-502"/>
<text text-anchor="start" x="150.581" y="-515" font-family="Helvetica,sans-Serif" font-size="10.00" fill="#000000">+IndianGrill</text>
<polygon fill="none" stroke="#000000" points=".5,-470 .5,-502 351.5,-502 351.5,-470 .5,-470"/>
<text text-anchor="start" x="174.6105" y="-483" font-family="Helvetica,sans-Serif" font-size="10.00" fill="#000000"> </text>
<polygon fill="none" stroke="#000000" points=".5,-378 .5,-470 351.5,-470 351.5,-378 .5,-378"/>
<text text-anchor="start" x="99.4595" y="-451" font-family="Helvetica,sans-Serif" font-size="10.00" fill="#000000">+OrderProduce(name:string):Food</text>
<text text-anchor="start" x="103.074" y="-439" font-family="Helvetica,sans-Serif" font-size="10.00" fill="#000000"> +OrderBulk(name:string):Supply</text>
<text text-anchor="start" x="110.8535" y="-427" font-family="Helvetica,sans-Serif" font-size="10.00" fill="#000000"> +TakeOrder(orderInfo:string)</text>
<text text-anchor="start" x="131.1285" y="-415" font-family="Helvetica,sans-Serif" font-size="10.00" fill="#000000"> +ServeFood():Food</text>
<text text-anchor="start" x="143.072" y="-403" font-family="Helvetica,sans-Serif" font-size="10.00" fill="#000000"> +OpenBuffet()</text>
<text text-anchor="start" x="111.4065" y="-391" font-family="Helvetica,sans-Serif" font-size="10.00" fill="#000000"> +AnnounceHolidayTimes():o</text>
<polygon fill="none" stroke="#000000" points=".5,-298 .5,-378 351.5,-378 351.5,-298 .5,-298"/>
<text text-anchor="start" x="140.718" y="-359" font-family="Helvetica,sans-Serif" font-size="10.00" fill="#000000"> (location:string,</text>
<text text-anchor="start" x="145.441" y="-347" font-family="Helvetica,sans-Serif" font-size="10.00" fill="#000000">cuisine:string,</text>
<text text-anchor="start" x="148.4955" y="-335" font-family="Helvetica,sans-Serif" font-size="10.00" fill="#000000">name:string,</text>
<text text-anchor="start" x="135.988" y="-323" font-family="Helvetica,sans-Serif" font-size="10.00" fill="#000000">openTime:double,</text>
<text text-anchor="start" x="10.422" y="-311" font-family="Helvetica,sans-Serif" font-size="10.00" fill="#000000">closingTime:double):base(location, cuisine, name, openTime, closingTime)</text>
</g>
<!-- A0&#45;&gt;A3 -->
<g id="edge1" class="edge">
<title>A0&#45;&gt;A3</title>
<path fill="none" stroke="#000000" stroke-dasharray="5,2" d="M177.1491,-573.4878C177.008,-560.0176 176.8694,-546.777 176.7361,-534.0453"/>
<polygon fill="#000000" stroke="#000000" points="177.2574,-583.8287 172.6528,-573.8764 177.205,-578.829 177.1526,-573.8292 177.1526,-573.8292 177.1526,-573.8292 177.205,-578.829 181.6523,-573.7821 177.2574,-583.8287 177.2574,-583.8287"/>
</g>
<!-- A4 -->
<g id="node5" class="node">
<title>A4</title>
<polygon fill="none" stroke="#000000" points="369.5,-502 369.5,-534 720.5,-534 720.5,-502 369.5,-502"/>
<text text-anchor="start" x="514.0205" y="-515" font-family="Helvetica,sans-Serif" font-size="10.00" fill="#000000">+TheRedFern</text>
<polygon fill="none" stroke="#000000" points="369.5,-470 369.5,-502 720.5,-502 720.5,-470 369.5,-470"/>
<text text-anchor="start" x="543.6105" y="-483" font-family="Helvetica,sans-Serif" font-size="10.00" fill="#000000"> </text>
<polygon fill="none" stroke="#000000" points="369.5,-378 369.5,-470 720.5,-470 720.5,-378 369.5,-378"/>
<text text-anchor="start" x="468.4595" y="-451" font-family="Helvetica,sans-Serif" font-size="10.00" fill="#000000">+OrderProduce(name:string):Food</text>
<text text-anchor="start" x="472.074" y="-439" font-family="Helvetica,sans-Serif" font-size="10.00" fill="#000000"> +OrderBulk(name:string):Supply</text>
<text text-anchor="start" x="479.8535" y="-427" font-family="Helvetica,sans-Serif" font-size="10.00" fill="#000000"> +TakeOrder(orderInfo:string)</text>
<text text-anchor="start" x="500.1285" y="-415" font-family="Helvetica,sans-Serif" font-size="10.00" fill="#000000"> +ServeFood():Food</text>
<text text-anchor="start" x="498.469" y="-403" font-family="Helvetica,sans-Serif" font-size="10.00" fill="#000000"> +HoldCharityEvent()</text>
<text text-anchor="start" x="480.4065" y="-391" font-family="Helvetica,sans-Serif" font-size="10.00" fill="#000000"> +AnnounceHolidayTimes():o</text>
<polygon fill="none" stroke="#000000" points="369.5,-298 369.5,-378 720.5,-378 720.5,-298 369.5,-298"/>
<text text-anchor="start" x="509.718" y="-359" font-family="Helvetica,sans-Serif" font-size="10.00" fill="#000000"> (location:string,</text>
<text text-anchor="start" x="514.441" y="-347" font-family="Helvetica,sans-Serif" font-size="10.00" fill="#000000">cuisine:string,</text>
<text text-anchor="start" x="517.4955" y="-335" font-family="Helvetica,sans-Serif" font-size="10.00" fill="#000000">name:string,</text>
<text text-anchor="start" x="504.988" y="-323" font-family="Helvetica,sans-Serif" font-size="10.00" fill="#000000">openTime:double,</text>
<text text-anchor="start" x="379.422" y="-311" font-family="Helvetica,sans-Serif" font-size="10.00" fill="#000000">closingTime:double):base(location, cuisine, name, openTime, closingTime)</text>
</g>
<!-- A0&#45;&gt;A4 -->
<g id="edge2" class="edge">
<title>A0&#45;&gt;A4</title>
<path fill="none" stroke="#000000" stroke-dasharray="5,2" d="M258.6679,-596.9988C262.1395,-592.508 265.7488,-588.1645 269.5,-584 300.3855,-549.712 320.8322,-557.5806 360.5,-534 363.2728,-532.3517 366.0642,-530.6828 368.8701,-528.9965"/>
<polygon fill="#000000" stroke="#000000" points="252.5666,-605.2345 254.9035,-594.5205 255.543,-601.2168 258.5194,-597.1992 258.5194,-597.1992 258.5194,-597.1992 255.543,-601.2168 262.1352,-599.878 252.5666,-605.2345 252.5666,-605.2345"/>
</g>
<!-- A1 -->
<g id="node2" class="node">
<title>A1</title>
<polygon fill="none" stroke="#000000" points="278.5,-804 278.5,-836 422.5,-836 422.5,-804 278.5,-804"/>
<text text-anchor="start" x="326.465" y="-817" font-family="Helvetica,sans-Serif" font-size="10.00" fill="#000000">+I.IServing</text>
<polygon fill="none" stroke="#000000" points="278.5,-760 278.5,-804 422.5,-804 422.5,-760 278.5,-760"/>
<text text-anchor="start" x="288.273" y="-785" font-family="Helvetica,sans-Serif" font-size="10.00" fill="#000000"> TakeOrder(orderInfo:string)</text>
<text text-anchor="start" x="308.548" y="-773" font-family="Helvetica,sans-Serif" font-size="10.00" fill="#000000"> ServeFood():Food</text>
</g>
<!-- A1&#45;&gt;A3 -->
<g id="edge3" class="edge">
<title>A1&#45;&gt;A3</title>
<path fill="none" stroke="#000000" d="M331.8825,-750.2125C314.5692,-706.5322 287.5914,-640.3508 261.5,-584 253.9969,-567.7952 245.7908,-550.876 237.521,-534.2809"/>
<polygon fill="none" stroke="#000000" points="328.7104,-751.7089 335.6403,-759.7231 335.2206,-749.1366 328.7104,-751.7089"/>
</g>
<!-- A1&#45;&gt;A4 -->
<g id="edge5" class="edge">
<title>A1&#45;&gt;A4</title>
<path fill="none" stroke="#000000" d="M370.0196,-750.6651C388.4915,-706.8439 417.6194,-640.1746 446.5,-584 454.8371,-567.7838 464.0175,-550.9337 473.3144,-534.4387"/>
<polygon fill="none" stroke="#000000" points="366.7742,-749.3539 366.1298,-759.9291 373.2284,-752.0639 366.7742,-749.3539"/>
</g>
<!-- A2 -->
<g id="node3" class="node">
<title>A2</title>
<polygon fill="none" stroke="#000000" points="455.5,-804 455.5,-836 625.5,-836 625.5,-804 455.5,-804"/>
<text text-anchor="start" x="508.6855" y="-817" font-family="Helvetica,sans-Serif" font-size="10.00" fill="#000000">+I.IRestocking</text>
<polygon fill="none" stroke="#000000" points="455.5,-760 455.5,-804 625.5,-804 625.5,-760 455.5,-760"/>
<text text-anchor="start" x="465.4895" y="-785" font-family="Helvetica,sans-Serif" font-size="10.00" fill="#000000"> OrderProduce(name:string):Food</text>
<text text-anchor="start" x="470.4935" y="-773" font-family="Helvetica,sans-Serif" font-size="10.00" fill="#000000"> OrderBulk(name:string):Supply</text>
</g>
<!-- A2&#45;&gt;A3 -->
<g id="edge4" class="edge">
<title>A2&#45;&gt;A3</title>
<path fill="none" stroke="#000000" d="M524.3703,-750.1243C506.9575,-703.713 475.6573,-633.2859 431.5,-584 427.4206,-579.4468 393.2107,-556.4689 351.0536,-528.8972"/>
<polygon fill="none" stroke="#000000" points="521.1365,-751.4714 527.8749,-759.6472 527.7058,-749.0538 521.1365,-751.4714"/>
</g>
<!-- A2&#45;&gt;A4 -->
<g id="edge6" class="edge">
<title>A2&#45;&gt;A4</title>
<path fill="none" stroke="#000000" d="M541.0058,-749.6922C541.5696,-695.8517 542.5019,-606.819 543.2617,-534.2552"/>
<polygon fill="none" stroke="#000000" points="537.5032,-749.9397 540.8982,-759.9758 544.5028,-750.013 537.5032,-749.9397"/>
</g>
<!-- A5 -->
<g id="node6" class="node">
<title>A5</title>
<polygon fill="none" stroke="#000000" points="248.5,-216 248.5,-248 352.5,-248 352.5,-216 248.5,-216"/>
<text text-anchor="start" x="286.1875" y="-229" font-family="Helvetica,sans-Serif" font-size="10.00" fill="#000000">+Food</text>
<polygon fill="none" stroke="#000000" points="248.5,-136 248.5,-216 352.5,-216 352.5,-136 248.5,-136"/>
<text text-anchor="start" x="271.331" y="-197" font-family="Helvetica,sans-Serif" font-size="10.00" fill="#000000"> &#45;name:string</text>
<text text-anchor="start" x="273.5515" y="-173" font-family="Helvetica,sans-Serif" font-size="10.00" fill="#000000">&#45;shelfLife:int</text>
<text text-anchor="start" x="261.053" y="-149" font-family="Helvetica,sans-Serif" font-size="10.00" fill="#000000">&#45;description:string</text>
<polygon fill="none" stroke="#000000" points="248.5,-56 248.5,-136 352.5,-136 352.5,-56 248.5,-56"/>
<text text-anchor="start" x="269.246" y="-117" font-family="Helvetica,sans-Serif" font-size="10.00" fill="#000000"> +Name:string</text>
<text text-anchor="start" x="271.462" y="-93" font-family="Helvetica,sans-Serif" font-size="10.00" fill="#000000">+ShelfLife:int</text>
<text text-anchor="start" x="258.1335" y="-69" font-family="Helvetica,sans-Serif" font-size="10.00" fill="#000000">+Description:String</text>
<polygon fill="none" stroke="#000000" points="248.5,0 248.5,-56 352.5,-56 352.5,0 248.5,0"/>
<text text-anchor="start" x="269.9415" y="-37" font-family="Helvetica,sans-Serif" font-size="10.00" fill="#000000"> (name:string,</text>
<text text-anchor="start" x="273.8265" y="-25" font-family="Helvetica,sans-Serif" font-size="10.00" fill="#000000">shelfLife:int,</text>
<text text-anchor="start" x="261.053" y="-13" font-family="Helvetica,sans-Serif" font-size="10.00" fill="#000000">description:string)</text>
</g>
<!-- A3&#45;&gt;A5 -->
<g id="edge7" class="edge">
<title>A3&#45;&gt;A5</title>
<path fill="none" stroke="#000000" d="M226.1621,-297.6534C233.471,-280.5797 241.0041,-262.9824 248.3416,-245.842"/>
<text text-anchor="middle" x="248.9786" y="-262.8318" font-family="Helvetica,sans-Serif" font-size="10.00" fill="#000000">0..*</text>
<text text-anchor="middle" x="225.5251" y="-274.6635" font-family="Helvetica,sans-Serif" font-size="10.00" fill="#000000">1</text>
</g>
<!-- A6 -->
<g id="node7" class="node">
<title>A6</title>
<polygon fill="none" stroke="#000000" points="432.5,-192 432.5,-224 530.5,-224 530.5,-192 432.5,-192"/>
<text text-anchor="start" x="463.298" y="-205" font-family="Helvetica,sans-Serif" font-size="10.00" fill="#000000">+Supply</text>
<polygon fill="none" stroke="#000000" points="432.5,-136 432.5,-192 530.5,-192 530.5,-136 432.5,-136"/>
<text text-anchor="start" x="452.331" y="-173" font-family="Helvetica,sans-Serif" font-size="10.00" fill="#000000"> &#45;name:string</text>
<text text-anchor="start" x="442.053" y="-149" font-family="Helvetica,sans-Serif" font-size="10.00" fill="#000000">&#45;description:string</text>
<polygon fill="none" stroke="#000000" points="432.5,-68 432.5,-136 530.5,-136 530.5,-68 432.5,-68"/>
<text text-anchor="start" x="450.246" y="-117" font-family="Helvetica,sans-Serif" font-size="10.00" fill="#000000"> +Name:string</text>
<text text-anchor="start" x="477.191" y="-105" font-family="Helvetica,sans-Serif" font-size="10.00" fill="#000000"> +</text>
<text text-anchor="start" x="442.8875" y="-93" font-family="Helvetica,sans-Serif" font-size="10.00" fill="#000000">Description:string</text>
<polygon fill="none" stroke="#000000" points="432.5,-24 432.5,-68 530.5,-68 530.5,-24 432.5,-24"/>
<text text-anchor="start" x="450.9415" y="-49" font-family="Helvetica,sans-Serif" font-size="10.00" fill="#000000"> (name:string,</text>
<text text-anchor="start" x="442.053" y="-37" font-family="Helvetica,sans-Serif" font-size="10.00" fill="#000000">description:string)</text>
</g>
<!-- A3&#45;&gt;A6 -->
<g id="edge8" class="edge">
<title>A3&#45;&gt;A6</title>
<path fill="none" stroke="#000000" d="M308.5992,-297.768C326.5559,-281.2409 344.6014,-264.3269 361.5,-248 385.3069,-224.9985 410.9194,-198.7509 432.3432,-176.345"/>
<text text-anchor="middle" x="425.902" y="-192.2794" font-family="Helvetica,sans-Serif" font-size="10.00" fill="#000000">0..*</text>
<text text-anchor="middle" x="316.1949" y="-276.2665" font-family="Helvetica,sans-Serif" font-size="10.00" fill="#000000">1</text>
</g>
<!-- A4&#45;&gt;A5 -->
<g id="edge9" class="edge">
<title>A4&#45;&gt;A5</title>
<path fill="none" stroke="#000000" d="M445.6076,-297.6534C413.771,-259.5539 379.7554,-218.8466 352.6658,-186.4279"/>
<text text-anchor="middle" x="370.7746" y="-191.9174" font-family="Helvetica,sans-Serif" font-size="10.00" fill="#000000">0..*</text>
<text text-anchor="middle" x="427.4988" y="-286.1639" font-family="Helvetica,sans-Serif" font-size="10.00" fill="#000000">1</text>
</g>
<!-- A4&#45;&gt;A6 -->
<g id="edge10" class="edge">
<title>A4&#45;&gt;A6</title>
<path fill="none" stroke="#000000" d="M518.9663,-297.6534C513.7136,-273.3076 508.2312,-247.8971 503.1325,-224.2648"/>
<text text-anchor="middle" x="515.2175" y="-237.2006" font-family="Helvetica,sans-Serif" font-size="10.00" fill="#000000">0..*</text>
<text text-anchor="middle" x="506.8812" y="-278.7175" font-family="Helvetica,sans-Serif" font-size="10.00" fill="#000000">1</text>
</g>
</g>
</svg>
