<?xml version="1.0" encoding="UTF-8" standalone="no"?>
<!DOCTYPE svg PUBLIC "-//W3C//DTD SVG 1.1//EN"
 "http://www.w3.org/Graphics/SVG/1.1/DTD/svg11.dtd">
<!-- Generated by graphviz version 2.40.1 (20161225.0304)
 -->
<!-- Title: G Pages: 1 -->
<svg width="716pt" height="1032pt"
 viewBox="0.00 0.00 716.00 1032.00" xmlns="http://www.w3.org/2000/svg" xmlns:xlink="http://www.w3.org/1999/xlink">
<g id="graph0" class="graph" transform="scale(1 1) rotate(0) translate(4 1028)">
<title>G</title>
<polygon fill="#ffffff" stroke="transparent" points="-4,4 -4,-1028 712,-1028 712,4 -4,4"/>
<!-- A0 -->
<g id="node1" class="node">
<title>A0</title>
<polygon fill="none" stroke="#000000" points="111.5,-992 111.5,-1024 257.5,-1024 257.5,-992 111.5,-992"/>
<text text-anchor="start" x="152.406" y="-1005" font-family="Helvetica,sans-Serif" font-size="10.00" fill="#000000">+A.Restaurant</text>
<polygon fill="none" stroke="#000000" points="111.5,-852 111.5,-992 257.5,-992 257.5,-852 111.5,-852"/>
<text text-anchor="start" x="150.6075" y="-973" font-family="Helvetica,sans-Serif" font-size="10.00" fill="#000000"> &#45;location:string</text>
<text text-anchor="start" x="153.666" y="-949" font-family="Helvetica,sans-Serif" font-size="10.00" fill="#000000">&#45;cuisine:string</text>
<text text-anchor="start" x="156.7205" y="-925" font-family="Helvetica,sans-Serif" font-size="10.00" fill="#000000">&#45;name:string</text>
<text text-anchor="start" x="146.9975" y="-901" font-family="Helvetica,sans-Serif" font-size="10.00" fill="#000000">&#45;openTime:string</text>
<text text-anchor="start" x="142.558" y="-877" font-family="Helvetica,sans-Serif" font-size="10.00" fill="#000000">&#45;closingTime:string</text>
<polygon fill="none" stroke="#000000" points="111.5,-676 111.5,-852 257.5,-852 257.5,-676 111.5,-676"/>
<text text-anchor="start" x="147.6825" y="-833" font-family="Helvetica,sans-Serif" font-size="10.00" fill="#000000"> +Location:string</text>
<text text-anchor="start" x="151.3015" y="-809" font-family="Helvetica,sans-Serif" font-size="10.00" fill="#000000">+Cuisine:string</text>
<text text-anchor="start" x="154.6355" y="-785" font-family="Helvetica,sans-Serif" font-size="10.00" fill="#000000">+Name:string</text>
<text text-anchor="start" x="144.6325" y="-761" font-family="Helvetica,sans-Serif" font-size="10.00" fill="#000000">+OpenTime:string</text>
<text text-anchor="start" x="140.1935" y="-737" font-family="Helvetica,sans-Serif" font-size="10.00" fill="#000000">+ClosingTime:string</text>
<text text-anchor="start" x="149.6365" y="-713" font-family="Helvetica,sans-Serif" font-size="10.00" fill="#000000">+DisplayInfo():v</text>
<text text-anchor="start" x="121.296" y="-689" font-family="Helvetica,sans-Serif" font-size="10.00" fill="#000000">+AnnounceHolidayTimes():a</text>
<polygon fill="none" stroke="#000000" points="111.5,-596 111.5,-676 257.5,-676 257.5,-596 111.5,-596"/>
<text text-anchor="start" x="150.6075" y="-657" font-family="Helvetica,sans-Serif" font-size="10.00" fill="#000000">(location:string,</text>
<text text-anchor="start" x="153.941" y="-645" font-family="Helvetica,sans-Serif" font-size="10.00" fill="#000000">cuisine:string,</text>
<text text-anchor="start" x="156.9955" y="-633" font-family="Helvetica,sans-Serif" font-size="10.00" fill="#000000">name:string,</text>
<text text-anchor="start" x="147.2725" y="-621" font-family="Helvetica,sans-Serif" font-size="10.00" fill="#000000">openTime:string,</text>
<text text-anchor="start" x="142.558" y="-609" font-family="Helvetica,sans-Serif" font-size="10.00" fill="#000000">closingTime:string)</text>
</g>
<!-- A3 -->
<g id="node4" class="node">
<title>A3</title>
<polygon fill="none" stroke="#000000" points=".5,-514 .5,-546 345.5,-546 345.5,-514 .5,-514"/>
<text text-anchor="start" x="147.581" y="-527" font-family="Helvetica,sans-Serif" font-size="10.00" fill="#000000">+IndianGrill</text>
<polygon fill="none" stroke="#000000" points=".5,-482 .5,-514 345.5,-514 345.5,-482 .5,-482"/>
<text text-anchor="start" x="171.6105" y="-495" font-family="Helvetica,sans-Serif" font-size="10.00" fill="#000000"> </text>
<polygon fill="none" stroke="#000000" points=".5,-390 .5,-482 345.5,-482 345.5,-390 .5,-390"/>
<text text-anchor="start" x="96.4595" y="-463" font-family="Helvetica,sans-Serif" font-size="10.00" fill="#000000">+OrderProduce(name:string):Food</text>
<text text-anchor="start" x="100.074" y="-451" font-family="Helvetica,sans-Serif" font-size="10.00" fill="#000000"> +OrderBulk(name:string):Supply</text>
<text text-anchor="start" x="107.8535" y="-439" font-family="Helvetica,sans-Serif" font-size="10.00" fill="#000000"> +TakeOrder(orderInfo:string)</text>
<text text-anchor="start" x="128.1285" y="-427" font-family="Helvetica,sans-Serif" font-size="10.00" fill="#000000"> +ServeFood():Food</text>
<text text-anchor="start" x="140.072" y="-415" font-family="Helvetica,sans-Serif" font-size="10.00" fill="#000000"> +OpenBuffet()</text>
<text text-anchor="start" x="108.4065" y="-403" font-family="Helvetica,sans-Serif" font-size="10.00" fill="#000000"> +AnnounceHolidayTimes():o</text>
<polygon fill="none" stroke="#000000" points=".5,-310 .5,-390 345.5,-390 345.5,-310 .5,-310"/>
<text text-anchor="start" x="137.718" y="-371" font-family="Helvetica,sans-Serif" font-size="10.00" fill="#000000"> (location:string,</text>
<text text-anchor="start" x="142.441" y="-359" font-family="Helvetica,sans-Serif" font-size="10.00" fill="#000000">cuisine:string,</text>
<text text-anchor="start" x="145.4955" y="-347" font-family="Helvetica,sans-Serif" font-size="10.00" fill="#000000">name:string,</text>
<text text-anchor="start" x="135.7725" y="-335" font-family="Helvetica,sans-Serif" font-size="10.00" fill="#000000">openTime:string,</text>
<text text-anchor="start" x="10.2065" y="-323" font-family="Helvetica,sans-Serif" font-size="10.00" fill="#000000">closingTime:string):base(location, cuisine, name, openTime, closingTime)</text>
</g>
<!-- A0&#45;&gt;A3 -->
<g id="edge1" class="edge">
<title>A0&#45;&gt;A3</title>
<path fill="none" stroke="#000000" stroke-dasharray="5,2" d="M177.4473,-585.4878C177.0241,-572.0176 176.6082,-558.777 176.2082,-546.0453"/>
<polygon fill="#000000" stroke="#000000" points="177.7721,-595.8287 172.9602,-585.975 177.6151,-590.8312 177.458,-585.8336 177.458,-585.8336 177.458,-585.8336 177.6151,-590.8312 181.9558,-585.6923 177.7721,-595.8287 177.7721,-595.8287"/>
</g>
<!-- A4 -->
<g id="node5" class="node">
<title>A4</title>
<polygon fill="none" stroke="#000000" points="363.5,-514 363.5,-546 708.5,-546 708.5,-514 363.5,-514"/>
<text text-anchor="start" x="505.0205" y="-527" font-family="Helvetica,sans-Serif" font-size="10.00" fill="#000000">+TheRedFern</text>
<polygon fill="none" stroke="#000000" points="363.5,-482 363.5,-514 708.5,-514 708.5,-482 363.5,-482"/>
<text text-anchor="start" x="534.6105" y="-495" font-family="Helvetica,sans-Serif" font-size="10.00" fill="#000000"> </text>
<polygon fill="none" stroke="#000000" points="363.5,-390 363.5,-482 708.5,-482 708.5,-390 363.5,-390"/>
<text text-anchor="start" x="459.4595" y="-463" font-family="Helvetica,sans-Serif" font-size="10.00" fill="#000000">+OrderProduce(name:string):Food</text>
<text text-anchor="start" x="463.074" y="-451" font-family="Helvetica,sans-Serif" font-size="10.00" fill="#000000"> +OrderBulk(name:string):Supply</text>
<text text-anchor="start" x="470.8535" y="-439" font-family="Helvetica,sans-Serif" font-size="10.00" fill="#000000"> +TakeOrder(orderInfo:string)</text>
<text text-anchor="start" x="491.1285" y="-427" font-family="Helvetica,sans-Serif" font-size="10.00" fill="#000000"> +ServeFood():Food</text>
<text text-anchor="start" x="489.469" y="-415" font-family="Helvetica,sans-Serif" font-size="10.00" fill="#000000"> +HoldCharityEvent()</text>
<text text-anchor="start" x="471.4065" y="-403" font-family="Helvetica,sans-Serif" font-size="10.00" fill="#000000"> +AnnounceHolidayTimes():o</text>
<polygon fill="none" stroke="#000000" points="363.5,-310 363.5,-390 708.5,-390 708.5,-310 363.5,-310"/>
<text text-anchor="start" x="500.718" y="-371" font-family="Helvetica,sans-Serif" font-size="10.00" fill="#000000"> (location:string,</text>
<text text-anchor="start" x="505.441" y="-359" font-family="Helvetica,sans-Serif" font-size="10.00" fill="#000000">cuisine:string,</text>
<text text-anchor="start" x="508.4955" y="-347" font-family="Helvetica,sans-Serif" font-size="10.00" fill="#000000">name:string,</text>
<text text-anchor="start" x="498.7725" y="-335" font-family="Helvetica,sans-Serif" font-size="10.00" fill="#000000">openTime:string,</text>
<text text-anchor="start" x="373.2065" y="-323" font-family="Helvetica,sans-Serif" font-size="10.00" fill="#000000">closingTime:string):base(location, cuisine, name, openTime, closingTime)</text>
</g>
<!-- A0&#45;&gt;A4 -->
<g id="edge2" class="edge">
<title>A0&#45;&gt;A4</title>
<path fill="none" stroke="#000000" stroke-dasharray="5,2" d="M263.4178,-607.4042C266.3473,-603.4899 269.3739,-599.6819 272.5,-596 299.8821,-563.7503 317.7487,-568.6202 353.5,-546 356.5231,-544.0872 359.5725,-542.1539 362.6421,-540.2043"/>
<polygon fill="#000000" stroke="#000000" points="257.5401,-615.5816 259.7226,-604.835 260.4583,-611.5215 263.3766,-607.4615 263.3766,-607.4615 263.3766,-607.4615 260.4583,-611.5215 267.0306,-610.0879 257.5401,-615.5816 257.5401,-615.5816"/>
</g>
<!-- A1 -->
<g id="node2" class="node">
<title>A1</title>
<polygon fill="none" stroke="#000000" points="281.5,-816 281.5,-848 425.5,-848 425.5,-816 281.5,-816"/>
<text text-anchor="start" x="329.465" y="-829" font-family="Helvetica,sans-Serif" font-size="10.00" fill="#000000">+I.IServing</text>
<polygon fill="none" stroke="#000000" points="281.5,-772 281.5,-816 425.5,-816 425.5,-772 281.5,-772"/>
<text text-anchor="start" x="291.273" y="-797" font-family="Helvetica,sans-Serif" font-size="10.00" fill="#000000"> TakeOrder(orderInfo:string)</text>
<text text-anchor="start" x="311.548" y="-785" font-family="Helvetica,sans-Serif" font-size="10.00" fill="#000000"> ServeFood():Food</text>
</g>
<!-- A1&#45;&gt;A3 -->
<g id="edge3" class="edge">
<title>A1&#45;&gt;A3</title>
<path fill="none" stroke="#000000" d="M336.0708,-762.3395C319.5764,-718.4806 293.3984,-651.9508 266.5,-596 258.6802,-579.7343 249.977,-562.8555 241.1108,-546.3462"/>
<polygon fill="none" stroke="#000000" points="332.8607,-763.7479 339.6432,-771.8873 339.4169,-761.2949 332.8607,-763.7479"/>
</g>
<!-- A1&#45;&gt;A4 -->
<g id="edge5" class="edge">
<title>A1&#45;&gt;A4</title>
<path fill="none" stroke="#000000" d="M369.8776,-762.1762C385.494,-718.2052 410.5682,-651.6026 437.5,-596 445.4485,-579.5898 454.4042,-562.6276 463.5885,-546.0763"/>
<polygon fill="none" stroke="#000000" points="366.5265,-761.1551 366.5,-771.7499 373.1277,-763.4841 366.5265,-761.1551"/>
</g>
<!-- A2 -->
<g id="node3" class="node">
<title>A2</title>
<polygon fill="none" stroke="#000000" points="446.5,-816 446.5,-848 616.5,-848 616.5,-816 446.5,-816"/>
<text text-anchor="start" x="499.6855" y="-829" font-family="Helvetica,sans-Serif" font-size="10.00" fill="#000000">+I.IRestocking</text>
<polygon fill="none" stroke="#000000" points="446.5,-772 446.5,-816 616.5,-816 616.5,-772 446.5,-772"/>
<text text-anchor="start" x="456.4895" y="-797" font-family="Helvetica,sans-Serif" font-size="10.00" fill="#000000"> OrderProduce(name:string):Food</text>
<text text-anchor="start" x="461.4935" y="-785" font-family="Helvetica,sans-Serif" font-size="10.00" fill="#000000"> OrderBulk(name:string):Supply</text>
</g>
<!-- A2&#45;&gt;A3 -->
<g id="edge4" class="edge">
<title>A2&#45;&gt;A3</title>
<path fill="none" stroke="#000000" d="M518.6289,-761.9968C504.2332,-715.4015 477.1702,-644.7607 434.5,-596 406.888,-564.4468 389.8697,-568.5169 354.5,-546 351.4822,-544.0788 348.4377,-542.1377 345.3728,-540.1809"/>
<polygon fill="none" stroke="#000000" points="515.3602,-763.2805 521.5944,-771.8471 522.063,-761.2626 515.3602,-763.2805"/>
</g>
<!-- A2&#45;&gt;A4 -->
<g id="edge6" class="edge">
<title>A2&#45;&gt;A4</title>
<path fill="none" stroke="#000000" d="M532.0058,-761.6922C532.5696,-707.8517 533.5019,-618.819 534.2617,-546.2552"/>
<polygon fill="none" stroke="#000000" points="528.5032,-761.9397 531.8982,-771.9758 535.5028,-762.013 528.5032,-761.9397"/>
</g>
<!-- A5 -->
<g id="node6" class="node">
<title>A5</title>
<polygon fill="none" stroke="#000000" points="242.5,-228 242.5,-260 346.5,-260 346.5,-228 242.5,-228"/>
<text text-anchor="start" x="280.1875" y="-241" font-family="Helvetica,sans-Serif" font-size="10.00" fill="#000000">+Food</text>
<polygon fill="none" stroke="#000000" points="242.5,-136 242.5,-228 346.5,-228 346.5,-136 242.5,-136"/>
<text text-anchor="start" x="265.331" y="-209" font-family="Helvetica,sans-Serif" font-size="10.00" fill="#000000"> &#45;name:string</text>
<text text-anchor="start" x="267.5515" y="-185" font-family="Helvetica,sans-Serif" font-size="10.00" fill="#000000">&#45;shelfLife:int</text>
<text text-anchor="start" x="255.053" y="-161" font-family="Helvetica,sans-Serif" font-size="10.00" fill="#000000">&#45;description:string</text>
<polygon fill="none" stroke="#000000" points="242.5,-56 242.5,-136 346.5,-136 346.5,-56 242.5,-56"/>
<text text-anchor="start" x="263.246" y="-117" font-family="Helvetica,sans-Serif" font-size="10.00" fill="#000000"> +Name:string</text>
<text text-anchor="start" x="265.462" y="-93" font-family="Helvetica,sans-Serif" font-size="10.00" fill="#000000">+ShelfLife:int</text>
<text text-anchor="start" x="252.1335" y="-69" font-family="Helvetica,sans-Serif" font-size="10.00" fill="#000000">+Description:String</text>
<polygon fill="none" stroke="#000000" points="242.5,0 242.5,-56 346.5,-56 346.5,0 242.5,0"/>
<text text-anchor="start" x="263.9415" y="-37" font-family="Helvetica,sans-Serif" font-size="10.00" fill="#000000"> (name:string,</text>
<text text-anchor="start" x="267.8265" y="-25" font-family="Helvetica,sans-Serif" font-size="10.00" fill="#000000">shelfLife:int,</text>
<text text-anchor="start" x="255.053" y="-13" font-family="Helvetica,sans-Serif" font-size="10.00" fill="#000000">description:string)</text>
</g>
<!-- A3&#45;&gt;A5 -->
<g id="edge7" class="edge">
<title>A3&#45;&gt;A5</title>
<path fill="none" stroke="#000000" d="M220.8929,-309.7945C227.9447,-292.5695 235.2316,-274.7705 242.3539,-257.3733"/>
<text text-anchor="middle" x="243.3086" y="-274.3505" font-family="Helvetica,sans-Serif" font-size="10.00" fill="#000000">0..*</text>
<text text-anchor="middle" x="219.9382" y="-286.8173" font-family="Helvetica,sans-Serif" font-size="10.00" fill="#000000">1</text>
</g>
<!-- A6 -->
<g id="node7" class="node">
<title>A6</title>
<polygon fill="none" stroke="#000000" points="425.5,-198 425.5,-230 523.5,-230 523.5,-198 425.5,-198"/>
<text text-anchor="start" x="456.298" y="-211" font-family="Helvetica,sans-Serif" font-size="10.00" fill="#000000">+Supply</text>
<polygon fill="none" stroke="#000000" points="425.5,-142 425.5,-198 523.5,-198 523.5,-142 425.5,-142"/>
<text text-anchor="start" x="445.331" y="-179" font-family="Helvetica,sans-Serif" font-size="10.00" fill="#000000"> &#45;name:string</text>
<text text-anchor="start" x="435.053" y="-155" font-family="Helvetica,sans-Serif" font-size="10.00" fill="#000000">&#45;description:string</text>
<polygon fill="none" stroke="#000000" points="425.5,-74 425.5,-142 523.5,-142 523.5,-74 425.5,-74"/>
<text text-anchor="start" x="443.246" y="-123" font-family="Helvetica,sans-Serif" font-size="10.00" fill="#000000"> +Name:string</text>
<text text-anchor="start" x="470.191" y="-111" font-family="Helvetica,sans-Serif" font-size="10.00" fill="#000000"> +</text>
<text text-anchor="start" x="435.8875" y="-99" font-family="Helvetica,sans-Serif" font-size="10.00" fill="#000000">Description:string</text>
<polygon fill="none" stroke="#000000" points="425.5,-30 425.5,-74 523.5,-74 523.5,-30 425.5,-30"/>
<text text-anchor="start" x="443.9415" y="-55" font-family="Helvetica,sans-Serif" font-size="10.00" fill="#000000"> (name:string,</text>
<text text-anchor="start" x="435.053" y="-43" font-family="Helvetica,sans-Serif" font-size="10.00" fill="#000000">description:string)</text>
</g>
<!-- A3&#45;&gt;A6 -->
<g id="edge8" class="edge">
<title>A3&#45;&gt;A6</title>
<path fill="none" stroke="#000000" d="M304.2589,-309.5936C321.7143,-293.1678 339.1961,-276.3274 355.5,-260 379.174,-236.2919 404.3675,-209.081 425.4493,-185.7013"/>
<text text-anchor="middle" x="419.5574" y="-201.8138" font-family="Helvetica,sans-Serif" font-size="10.00" fill="#000000">0..*</text>
<text text-anchor="middle" x="311.6446" y="-288.0073" font-family="Helvetica,sans-Serif" font-size="10.00" fill="#000000">1</text>
</g>
<!-- A4&#45;&gt;A5 -->
<g id="edge9" class="edge">
<title>A4&#45;&gt;A5</title>
<path fill="none" stroke="#000000" d="M439.9043,-309.7945C408.1013,-270.4696 373.8781,-228.1522 346.6276,-194.4565"/>
<text text-anchor="middle" x="364.5979" y="-200.2355" font-family="Helvetica,sans-Serif" font-size="10.00" fill="#000000">0..*</text>
<text text-anchor="middle" x="421.934" y="-298.0156" font-family="Helvetica,sans-Serif" font-size="10.00" fill="#000000">1</text>
</g>
<!-- A4&#45;&gt;A6 -->
<g id="edge10" class="edge">
<title>A4&#45;&gt;A6</title>
<path fill="none" stroke="#000000" d="M511.3036,-309.7945C505.9149,-283.4696 500.2518,-255.8036 495.0273,-230.2808"/>
<text text-anchor="middle" x="506.9429" y="-243.3437" font-family="Helvetica,sans-Serif" font-size="10.00" fill="#000000">0..*</text>
<text text-anchor="middle" x="499.3879" y="-290.7316" font-family="Helvetica,sans-Serif" font-size="10.00" fill="#000000">1</text>
</g>
</g>
</svg>
