<?xml version="1.0" encoding="UTF-8" standalone="no"?>
<!DOCTYPE svg PUBLIC "-//W3C//DTD SVG 1.1//EN"
 "http://www.w3.org/Graphics/SVG/1.1/DTD/svg11.dtd">
<!-- Generated by graphviz version 2.40.1 (20161225.0304)
 -->
<!-- Title: G Pages: 1 -->
<svg width="208pt" height="714pt"
 viewBox="0.00 0.00 208.00 714.00" xmlns="http://www.w3.org/2000/svg" xmlns:xlink="http://www.w3.org/1999/xlink">
<g id="graph0" class="graph" transform="scale(1 1) rotate(0) translate(4 710)">
<title>G</title>
<polygon fill="#ffffff" stroke="transparent" points="-4,4 -4,-710 204,-710 204,4 -4,4"/>
<!-- A0 -->
<g id="node1" class="node">
<title>A0</title>
<polygon fill="none" stroke="#000000" points="62,-674 62,-706 139,-706 139,-674 62,-674"/>
<text text-anchor="start" x="71.7455" y="-687" font-family="Helvetica,sans-Serif" font-size="10.00" fill="#000000">+I:ICustomer</text>
<polygon fill="none" stroke="#000000" points="62,-654 62,-674 139,-674 139,-654 62,-654"/>
<polygon fill="none" stroke="#000000" points="62,-622 62,-654 139,-654 139,-622 62,-622"/>
<text text-anchor="start" x="81.749" y="-635" font-family="Helvetica,sans-Serif" font-size="10.00" fill="#000000">+Greet()</text>
</g>
<!-- A1 -->
<g id="node2" class="node">
<title>A1</title>
<polygon fill="none" stroke="#000000" points="27,-540 27,-572 173,-572 173,-540 27,-540"/>
<text text-anchor="start" x="75.414" y="-553" font-family="Helvetica,sans-Serif" font-size="10.00" fill="#000000">+Customer</text>
<polygon fill="none" stroke="#000000" points="27,-496 27,-540 173,-540 173,-496 27,-496"/>
<text text-anchor="start" x="70.9655" y="-521" font-family="Helvetica,sans-Serif" font-size="10.00" fill="#000000">+name:string</text>
<text text-anchor="start" x="43.891" y="-509" font-family="Helvetica,sans-Serif" font-size="10.00" fill="#000000">&#45;creditCardNumber:string</text>
<polygon fill="none" stroke="#000000" points="27,-452 27,-496 173,-496 173,-452 27,-452"/>
<text text-anchor="start" x="36.5275" y="-477" font-family="Helvetica,sans-Serif" font-size="10.00" fill="#000000">+CreditCardNumber:string:w</text>
<text text-anchor="start" x="80.279" y="-465" font-family="Helvetica,sans-Serif" font-size="10.00" fill="#000000">Greet():v</text>
</g>
<!-- A0&#45;&gt;A1 -->
<g id="edge1" class="edge">
<title>A0&#45;&gt;A1</title>
<path fill="none" stroke="#000000" d="M100,-611.6559C100,-598.8779 100,-585.1089 100,-572.0045"/>
<polygon fill="none" stroke="#000000" points="96.5001,-611.6595 100,-621.6595 103.5001,-611.6596 96.5001,-611.6595"/>
</g>
<!-- A2 -->
<g id="node3" class="node">
<title>A2</title>
<polygon fill="none" stroke="#000000" points="31,-370 31,-402 170,-402 170,-370 31,-370"/>
<text text-anchor="start" x="73.415" y="-383" font-family="Helvetica,sans-Serif" font-size="10.00" fill="#000000">+A:HotDrink</text>
<polygon fill="none" stroke="#000000" points="31,-278 31,-370 170,-370 170,-278 31,-278"/>
<text text-anchor="start" x="72.016" y="-351" font-family="Helvetica,sans-Serif" font-size="10.00" fill="#000000">+instant:bool</text>
<text text-anchor="start" x="77.8595" y="-339" font-family="Helvetica,sans-Serif" font-size="10.00" fill="#000000">+milk:bool</text>
<text text-anchor="start" x="75.4945" y="-327" font-family="Helvetica,sans-Serif" font-size="10.00" fill="#000000">&#45;sugar:byte</text>
<text text-anchor="start" x="71.186" y="-315" font-family="Helvetica,sans-Serif" font-size="10.00" fill="#000000">+brand:string</text>
<text text-anchor="start" x="75.0795" y="-303" font-family="Helvetica,sans-Serif" font-size="10.00" fill="#000000">+size:string</text>
<text text-anchor="start" x="53.9675" y="-291" font-family="Helvetica,sans-Serif" font-size="10.00" fill="#000000">+customer:Customer</text>
<polygon fill="none" stroke="#000000" points="31,-234 31,-278 170,-278 170,-234 31,-234"/>
<text text-anchor="start" x="40.621" y="-259" font-family="Helvetica,sans-Serif" font-size="10.00" fill="#000000">+AddSugar(amount:byte):v</text>
<text text-anchor="start" x="75.635" y="-247" font-family="Helvetica,sans-Serif" font-size="10.00" fill="#000000">+Steam():a</text>
<polygon fill="none" stroke="#000000" points="31,-190 31,-234 170,-234 170,-190 31,-190"/>
<text text-anchor="start" x="94.2515" y="-215" font-family="Helvetica,sans-Serif" font-size="10.00" fill="#000000">+()</text>
<text text-anchor="start" x="67.857" y="-203" font-family="Helvetica,sans-Serif" font-size="10.00" fill="#000000">+(brand:string)</text>
</g>
<!-- A1&#45;&gt;A2 -->
<g id="edge3" class="edge">
<title>A1&#45;&gt;A2</title>
<path fill="none" stroke="#000000" d="M100,-451.832C100,-436.3531 100,-419.2315 100,-402.1709"/>
<text text-anchor="middle" x="108.4524" y="-417.297" font-family="Helvetica,sans-Serif" font-size="10.00" fill="#000000">0..*</text>
<text text-anchor="middle" x="91.5476" y="-430.7058" font-family="Helvetica,sans-Serif" font-size="10.00" fill="#000000">1</text>
</g>
<!-- A3 -->
<g id="node4" class="node">
<title>A3</title>
<polygon fill="none" stroke="#000000" points="0,-108 0,-140 200,-140 200,-108 0,-108"/>
<text text-anchor="start" x="67.906" y="-121" font-family="Helvetica,sans-Serif" font-size="10.00" fill="#000000">+CupOfCoffee</text>
<polygon fill="none" stroke="#000000" points="0,-76 0,-108 200,-108 200,-76 0,-76"/>
<text text-anchor="start" x="61.237" y="-89" font-family="Helvetica,sans-Serif" font-size="10.00" fill="#000000">+beanType:string</text>
<polygon fill="none" stroke="#000000" points="0,-44 0,-76 200,-76 200,-44 0,-44"/>
<text text-anchor="start" x="75.135" y="-57" font-family="Helvetica,sans-Serif" font-size="10.00" fill="#000000">+Steam():o</text>
<polygon fill="none" stroke="#000000" points="0,0 0,-44 200,-44 200,0 0,0"/>
<text text-anchor="start" x="93.7515" y="-25" font-family="Helvetica,sans-Serif" font-size="10.00" fill="#000000">+()</text>
<text text-anchor="start" x="9.843" y="-13" font-family="Helvetica,sans-Serif" font-size="10.00" fill="#000000">+CupOfCoffee(brand:string):base(brand)</text>
</g>
<!-- A2&#45;&gt;A3 -->
<g id="edge2" class="edge">
<title>A2&#45;&gt;A3</title>
<path fill="none" stroke="#000000" d="M100,-179.6621C100,-166.2104 100,-152.8219 100,-140.2599"/>
<polygon fill="#000000" stroke="#000000" points="100,-189.9482 95.5001,-179.9482 100,-184.9482 100.0001,-179.9482 100.0001,-179.9482 100.0001,-179.9482 100,-184.9482 104.5001,-179.9483 100,-189.9482 100,-189.9482"/>
</g>
</g>
</svg>
