<?xml version="1.0" encoding="UTF-8" standalone="no"?>
<!DOCTYPE svg PUBLIC "-//W3C//DTD SVG 1.1//EN"
 "http://www.w3.org/Graphics/SVG/1.1/DTD/svg11.dtd">
<!-- Generated by graphviz version 2.40.1 (20161225.0304)
 -->
<!-- Title: G Pages: 1 -->
<svg width="112pt" height="250pt"
 viewBox="0.00 0.00 112.00 250.00" xmlns="http://www.w3.org/2000/svg" xmlns:xlink="http://www.w3.org/1999/xlink">
<g id="graph0" class="graph" transform="scale(1 1) rotate(0) translate(4 246)">
<title>G</title>
<polygon fill="#ffffff" stroke="transparent" points="-4,4 -4,-246 108,-246 108,4 -4,4"/>
<!-- A0 -->
<g id="node1" class="node">
<title>A0</title>
<polygon fill="none" stroke="#000000" points="0,-210 0,-242 104,-242 104,-210 0,-210"/>
<text text-anchor="start" x="29.9175" y="-223" font-family="Helvetica,sans-Serif" font-size="10.00" fill="#000000">+MyClass</text>
<polygon fill="none" stroke="#000000" points="0,-178 0,-210 104,-210 104,-178 0,-178"/>
<text text-anchor="start" x="14.223" y="-191" font-family="Helvetica,sans-Serif" font-size="10.00" fill="#000000"> &#45;myString:string </text>
<polygon fill="none" stroke="#000000" points="0,-146 0,-178 104,-178 104,-146 0,-146"/>
<text text-anchor="start" x="9.6345" y="-159" font-family="Helvetica,sans-Serif" font-size="10.00" fill="#000000"> +GetString():string</text>
</g>
<!-- A1 -->
<g id="node2" class="node">
<title>A1</title>
<polygon fill="none" stroke="#000000" points="0,-64 0,-96 104,-96 104,-64 0,-64"/>
<text text-anchor="start" x="11.306" y="-77" font-family="Helvetica,sans-Serif" font-size="10.00" fill="#000000">+MyDerivedClass </text>
<polygon fill="none" stroke="#000000" points="0,-32 0,-64 104,-64 104,-32 0,-32"/>
<text text-anchor="start" x="50.6105" y="-45" font-family="Helvetica,sans-Serif" font-size="10.00" fill="#000000"> </text>
<polygon fill="none" stroke="#000000" points="0,0 0,-32 104,-32 104,0 0,0"/>
<text text-anchor="start" x="9.6345" y="-13" font-family="Helvetica,sans-Serif" font-size="10.00" fill="#000000"> +GetString():string</text>
</g>
<!-- A0&#45;&gt;A1 -->
<g id="edge1" class="edge">
<title>A0&#45;&gt;A1</title>
<path fill="none" stroke="#000000" stroke-dasharray="5,2" d="M52,-135.4923C52,-122.4385 52,-108.7404 52,-96.1599"/>
<polygon fill="#000000" stroke="#000000" points="52,-145.7895 47.5001,-135.7895 52,-140.7895 52.0001,-135.7895 52.0001,-135.7895 52.0001,-135.7895 52,-140.7895 56.5001,-135.7896 52,-145.7895 52,-145.7895"/>
</g>
</g>
</svg>
