<?xml version="1.0" encoding="UTF-8" standalone="no"?>
<!DOCTYPE svg PUBLIC "-//W3C//DTD SVG 1.1//EN"
 "http://www.w3.org/Graphics/SVG/1.1/DTD/svg11.dtd">
<!-- Generated by graphviz version 2.40.1 (20161225.0304)
 -->
<!-- Title: G Pages: 1 -->
<svg width="174pt" height="262pt"
 viewBox="0.00 0.00 174.00 262.00" xmlns="http://www.w3.org/2000/svg" xmlns:xlink="http://www.w3.org/1999/xlink">
<g id="graph0" class="graph" transform="scale(1 1) rotate(0) translate(4 258)">
<title>G</title>
<polygon fill="#ffffff" stroke="transparent" points="-4,4 -4,-258 170,-258 170,4 -4,4"/>
<!-- A0 -->
<g id="node1" class="node">
<title>A0</title>
<polygon fill="none" stroke="#000000" points="18,-222 18,-254 148,-254 148,-222 18,-222"/>
<text text-anchor="start" x="60.9175" y="-235" font-family="Helvetica,sans-Serif" font-size="10.00" fill="#000000">+MyClass</text>
<polygon fill="none" stroke="#000000" points="18,-190 18,-222 148,-222 148,-190 18,-190"/>
<text text-anchor="start" x="45.223" y="-203" font-family="Helvetica,sans-Serif" font-size="10.00" fill="#000000"> &#45;myString:string </text>
<polygon fill="none" stroke="#000000" points="18,-146 18,-190 148,-190 148,-146 18,-146"/>
<text text-anchor="start" x="27.847" y="-171" font-family="Helvetica,sans-Serif" font-size="10.00" fill="#000000"> +GetString():&lt;&lt;virtual&gt;&gt;</text>
<text text-anchor="start" x="70.7775" y="-159" font-family="Helvetica,sans-Serif" font-size="10.00" fill="#000000">string</text>
</g>
<!-- A1 -->
<g id="node2" class="node">
<title>A1</title>
<polygon fill="none" stroke="#000000" points="0,-64 0,-96 166,-96 166,-64 0,-64"/>
<text text-anchor="start" x="42.306" y="-77" font-family="Helvetica,sans-Serif" font-size="10.00" fill="#000000">+MyDerivedClass </text>
<polygon fill="none" stroke="#000000" points="0,-32 0,-64 166,-64 166,-32 0,-32"/>
<text text-anchor="start" x="81.6105" y="-45" font-family="Helvetica,sans-Serif" font-size="10.00" fill="#000000"> </text>
<polygon fill="none" stroke="#000000" points="0,0 0,-32 166,-32 166,0 0,0"/>
<text text-anchor="start" x="9.5105" y="-13" font-family="Helvetica,sans-Serif" font-size="10.00" fill="#000000"> +GetString():&lt;&lt;override&gt;&gt;:string</text>
</g>
<!-- A0&#45;&gt;A1 -->
<g id="edge1" class="edge">
<title>A0&#45;&gt;A1</title>
<path fill="none" stroke="#000000" stroke-dasharray="5,2" d="M83,-135.8964C83,-122.5419 83,-108.6849 83,-96.0302"/>
<polygon fill="#000000" stroke="#000000" points="83,-145.9825 78.5001,-135.9825 83,-140.9825 83.0001,-135.9825 83.0001,-135.9825 83.0001,-135.9825 83,-140.9825 87.5001,-135.9825 83,-145.9825 83,-145.9825"/>
</g>
</g>
</svg>
