<?xml version="1.0" encoding="UTF-8" standalone="no"?>
<!DOCTYPE svg PUBLIC "-//W3C//DTD SVG 1.1//EN"
 "http://www.w3.org/Graphics/SVG/1.1/DTD/svg11.dtd">
<!-- Generated by graphviz version 2.40.1 (20161225.0304)
 -->
<!-- Title: G Pages: 1 -->
<svg width="1239pt" height="566pt"
 viewBox="0.00 0.00 1238.50 566.00" xmlns="http://www.w3.org/2000/svg" xmlns:xlink="http://www.w3.org/1999/xlink">
<g id="graph0" class="graph" transform="scale(1 1) rotate(0) translate(4 562)">
<title>G</title>
<polygon fill="#ffffff" stroke="transparent" points="-4,4 -4,-562 1234.5,-562 1234.5,4 -4,4"/>
<!-- A0 -->
<g id="node1" class="node">
<title>A0</title>
<polygon fill="none" stroke="#000000" points="426.5,-218 426.5,-250 548.5,-250 548.5,-218 426.5,-218"/>
<text text-anchor="start" x="463.7435" y="-231" font-family="Helvetica,sans-Serif" font-size="10.00" fill="#000000">+A.Games</text>
<polygon fill="none" stroke="#000000" points="426.5,-174 426.5,-218 548.5,-218 548.5,-174 426.5,-174"/>
<text text-anchor="start" x="459.7205" y="-199" font-family="Helvetica,sans-Serif" font-size="10.00" fill="#000000">&#45;name:string</text>
<text text-anchor="start" x="438.05" y="-187" font-family="Helvetica,sans-Serif" font-size="10.00" fill="#000000">&#45;platforms:List&lt;string&gt;</text>
<polygon fill="none" stroke="#000000" points="426.5,-130 426.5,-174 548.5,-174 548.5,-130 426.5,-130"/>
<text text-anchor="start" x="457.6355" y="-155" font-family="Helvetica,sans-Serif" font-size="10.00" fill="#000000">+Name:string</text>
<text text-anchor="start" x="437.9055" y="-143" font-family="Helvetica,sans-Serif" font-size="10.00" fill="#000000">+Platform:List&lt;String&gt;</text>
<polygon fill="none" stroke="#000000" points="426.5,-86 426.5,-130 548.5,-130 548.5,-86 426.5,-86"/>
<text text-anchor="start" x="458.056" y="-111" font-family="Helvetica,sans-Serif" font-size="10.00" fill="#000000">(name:string)</text>
<text text-anchor="start" x="436.3855" y="-99" font-family="Helvetica,sans-Serif" font-size="10.00" fill="#000000">(platforms:List&lt;string&gt;)</text>
</g>
<!-- A1 -->
<g id="node2" class="node">
<title>A1</title>
<polygon fill="none" stroke="#000000" points="561.065,-36 499.935,-36 499.935,0 561.065,0 561.065,-36"/>
<text text-anchor="middle" x="530.5" y="-15" font-family="Helvetica,sans-Serif" font-size="10.00" fill="#000000">+Game</text>
</g>
<!-- A0&#45;&gt;A1 -->
<g id="edge1" class="edge">
<title>A0&#45;&gt;A1</title>
<path fill="none" stroke="#000000" stroke-dasharray="5,2" d="M513.8848,-75.9602C518.2059,-60.8864 522.2491,-46.7822 525.265,-36.2617"/>
<polygon fill="#000000" stroke="#000000" points="511.013,-85.9779 509.443,-75.125 512.3909,-81.1715 513.7687,-76.3651 513.7687,-76.3651 513.7687,-76.3651 512.3909,-81.1715 518.0945,-77.6052 511.013,-85.9779 511.013,-85.9779"/>
</g>
<!-- A2 -->
<g id="node3" class="node">
<title>A2</title>
<polygon fill="none" stroke="#000000" points="769.967,-36 665.033,-36 665.033,0 769.967,0 769.967,-36"/>
<text text-anchor="middle" x="717.5" y="-15" font-family="Helvetica,sans-Serif" font-size="10.00" fill="#000000">+GameNotFound</text>
</g>
<!-- A0&#45;&gt;A2 -->
<g id="edge2" class="edge">
<title>A0&#45;&gt;A2</title>
<path fill="none" stroke="#000000" stroke-dasharray="5,2" d="M556.6523,-86.6269C556.9345,-86.4166 557.217,-86.2076 557.5,-86 589.9862,-62.1629 632.1017,-44.6948 664.9689,-33.4355"/>
<polygon fill="#000000" stroke="#000000" points="548.5899,-93.0696 553.5928,-83.3115 552.496,-89.9483 556.402,-86.8269 556.402,-86.8269 556.402,-86.8269 552.496,-89.9483 559.2112,-90.3424 548.5899,-93.0696 548.5899,-93.0696"/>
</g>
<!-- A3 -->
<g id="node4" class="node">
<title>A3</title>
<polygon fill="none" stroke="#000000" points="566.5,-212 566.5,-244 954.5,-244 954.5,-212 566.5,-212"/>
<text text-anchor="start" x="722.571" y="-225" font-family="Helvetica,sans-Serif" font-size="10.00" fill="#000000">+GameDatabase</text>
<polygon fill="none" stroke="#000000" points="566.5,-180 566.5,-212 954.5,-212 954.5,-180 566.5,-180"/>
<text text-anchor="start" x="675.205" y="-193" font-family="Helvetica,sans-Serif" font-size="10.00" fill="#000000">&#45;games:KeyValuePair&lt;Games, string&gt;</text>
<polygon fill="none" stroke="#000000" points="566.5,-136 566.5,-180 954.5,-180 954.5,-136 566.5,-136"/>
<text text-anchor="start" x="576.154" y="-161" font-family="Helvetica,sans-Serif" font-size="10.00" fill="#000000">+ReturnSearch(game:KeyValuePair&lt;Game, string&gt;):KeyValuePair&lt;Games, string&gt;</text>
<text text-anchor="start" x="653.1145" y="-149" font-family="Helvetica,sans-Serif" font-size="10.00" fill="#000000">+AddGame(game:KeyValuePair&lt;Game, string&gt;)</text>
<polygon fill="none" stroke="#000000" points="566.5,-92 566.5,-136 954.5,-136 954.5,-92 566.5,-92"/>
<text text-anchor="start" x="757.171" y="-117" font-family="Helvetica,sans-Serif" font-size="10.00" fill="#000000">()</text>
<text text-anchor="start" x="672.1525" y="-105" font-family="Helvetica,sans-Serif" font-size="10.00" fill="#000000">(gameList:KeyValuePair&lt;string, string)&gt;</text>
</g>
<!-- A3&#45;&gt;A1 -->
<g id="edge3" class="edge">
<title>A3&#45;&gt;A1</title>
<path fill="none" stroke="#000000" d="M643.8155,-91.9014C611.7906,-71.0156 579.94,-50.2435 558.2005,-36.0655"/>
<text text-anchor="middle" x="578.0004" y="-35.8875" font-family="Helvetica,sans-Serif" font-size="10.00" fill="#000000">0..*</text>
<text text-anchor="middle" x="624.0156" y="-86.0795" font-family="Helvetica,sans-Serif" font-size="10.00" fill="#000000">1</text>
</g>
<!-- A3&#45;&gt;A2 -->
<g id="edge4" class="edge">
<title>A3&#45;&gt;A2</title>
<path fill="none" stroke="#000000" d="M738.6221,-91.6817C732.6469,-70.838 726.7106,-50.1301 722.6601,-36.0003"/>
<text text-anchor="middle" x="735.7802" y="-48.0955" font-family="Helvetica,sans-Serif" font-size="10.00" fill="#000000">1</text>
<text text-anchor="middle" x="725.502" y="-73.5866" font-family="Helvetica,sans-Serif" font-size="10.00" fill="#000000">1</text>
</g>
<!-- A4 -->
<g id="node5" class="node">
<title>A4</title>
<polygon fill="none" stroke="#000000" points="576.5,-400 576.5,-432 945.5,-432 945.5,-400 576.5,-400"/>
<text text-anchor="start" x="737.799" y="-413" font-family="Helvetica,sans-Serif" font-size="10.00" fill="#000000">+Searcher</text>
<polygon fill="none" stroke="#000000" points="576.5,-356 576.5,-400 945.5,-400 945.5,-356 576.5,-356"/>
<text text-anchor="start" x="664.5875" y="-381" font-family="Helvetica,sans-Serif" font-size="10.00" fill="#000000">&#45;foundGames:KeyValuePair&lt;Game, string&gt;</text>
<text text-anchor="start" x="717.3825" y="-369" font-family="Helvetica,sans-Serif" font-size="10.00" fill="#000000">&#45;foundTeams:Team</text>
<polygon fill="none" stroke="#000000" points="576.5,-300 576.5,-356 945.5,-356 945.5,-300 576.5,-300"/>
<text text-anchor="start" x="619.17" y="-337" font-family="Helvetica,sans-Serif" font-size="10.00" fill="#000000">+SearchGame(gameName:string):KeyValuePair&lt;Game, Team&gt;</text>
<text text-anchor="start" x="586.1125" y="-325" font-family="Helvetica,sans-Serif" font-size="10.00" fill="#000000">+SearchGame(gameName:string,platform:string):KeyValuePair&lt;Game, Team&gt;</text>
<text text-anchor="start" x="633.338" y="-313" font-family="Helvetica,sans-Serif" font-size="10.00" fill="#000000">+SearchTeam(game:KeyValuePair&lt;Game, string&gt;):Team</text>
</g>
<!-- A4&#45;&gt;A3 -->
<g id="edge5" class="edge">
<title>A4&#45;&gt;A3</title>
<path fill="none" stroke="#000000" d="M760.5,-299.7936C760.5,-281.9185 760.5,-262.4354 760.5,-244.0669"/>
<text text-anchor="middle" x="768.9524" y="-259.1931" font-family="Helvetica,sans-Serif" font-size="10.00" fill="#000000">1</text>
<text text-anchor="middle" x="752.0476" y="-278.6674" font-family="Helvetica,sans-Serif" font-size="10.00" fill="#000000">1</text>
</g>
<!-- A5 -->
<g id="node6" class="node">
<title>A5</title>
<polygon fill="none" stroke="#000000" points=".5,-190 .5,-222 317.5,-222 317.5,-190 .5,-190"/>
<text text-anchor="start" x="121.906" y="-203" font-family="Helvetica,sans-Serif" font-size="10.00" fill="#000000">+TeamDatabase</text>
<polygon fill="none" stroke="#000000" points=".5,-158 .5,-190 317.5,-190 317.5,-158 .5,-158"/>
<text text-anchor="start" x="113.4375" y="-171" font-family="Helvetica,sans-Serif" font-size="10.00" fill="#000000">&#45;teams:List&lt;Teams&gt;</text>
<polygon fill="none" stroke="#000000" points=".5,-114 .5,-158 317.5,-158 317.5,-114 .5,-114"/>
<text text-anchor="start" x="10.226" y="-139" font-family="Helvetica,sans-Serif" font-size="10.00" fill="#000000">+ReturnTeamsByGame(game:KeyValuePair&lt;Game, string&gt;):Team</text>
<text text-anchor="start" x="40.2305" y="-127" font-family="Helvetica,sans-Serif" font-size="10.00" fill="#000000">+AddGameToMyTeam(KeyValuePair&lt;Game, string&gt;)</text>
</g>
<!-- A4&#45;&gt;A5 -->
<g id="edge10" class="edge">
<title>A4&#45;&gt;A5</title>
<path fill="none" stroke="#000000" d="M575.982,-325.2832C497.6456,-305.8275 406.0093,-280.1679 325.5,-250 304.1766,-242.0099 281.9325,-232.2016 260.8919,-222.1827"/>
<text text-anchor="middle" x="280.8917" y="-219.2821" font-family="Helvetica,sans-Serif" font-size="10.00" fill="#000000">1</text>
<text text-anchor="middle" x="556.3393" y="-326.0465" font-family="Helvetica,sans-Serif" font-size="10.00" fill="#000000">1</text>
</g>
<!-- A10 -->
<g id="node11" class="node">
<title>A10</title>
<polygon fill="none" stroke="#000000" points="972.5,-202 972.5,-234 1230.5,-234 1230.5,-202 972.5,-202"/>
<text text-anchor="start" x="1075.5195" y="-215" font-family="Helvetica,sans-Serif" font-size="10.00" fill="#000000">+Requester</text>
<polygon fill="none" stroke="#000000" points="972.5,-170 972.5,-202 1230.5,-202 1230.5,-170 972.5,-170"/>
<text text-anchor="start" x="1010.0885" y="-183" font-family="Helvetica,sans-Serif" font-size="10.00" fill="#000000">&#45;requestInfo:KeyValuePair&lt;string, string&gt;</text>
<polygon fill="none" stroke="#000000" points="972.5,-102 972.5,-170 1230.5,-170 1230.5,-102 972.5,-102"/>
<text text-anchor="start" x="1050.519" y="-151" font-family="Helvetica,sans-Serif" font-size="10.00" fill="#000000">=GetQueryReference()</text>
<text text-anchor="start" x="1028.293" y="-139" font-family="Helvetica,sans-Serif" font-size="10.00" fill="#000000">+AddRequest(gameName:string)</text>
<text text-anchor="start" x="994.6745" y="-127" font-family="Helvetica,sans-Serif" font-size="10.00" fill="#000000">+AddRequest(gameName:string, console:string)</text>
<text text-anchor="start" x="982.163" y="-115" font-family="Helvetica,sans-Serif" font-size="10.00" fill="#000000">+AddRequest(gameInfo:KeyValuePair&lt;string, string&gt;)</text>
</g>
<!-- A4&#45;&gt;A10 -->
<g id="edge12" class="edge">
<title>A4&#45;&gt;A10</title>
<path fill="none" stroke="#000000" d="M876.9012,-299.9357C905.2878,-283.7005 935.5312,-266.2991 963.5,-250 972.2886,-244.8783 981.3765,-239.5502 990.4995,-234.1786"/>
<text text-anchor="middle" x="979.1653" y="-247.6569" font-family="Helvetica,sans-Serif" font-size="10.00" fill="#000000">1</text>
<text text-anchor="middle" x="888.4347" y="-280.5962" font-family="Helvetica,sans-Serif" font-size="10.00" fill="#000000">1</text>
</g>
<!-- A6 -->
<g id="node7" class="node">
<title>A6</title>
<polygon fill="none" stroke="#000000" points="217.3963,-36 157.6037,-36 157.6037,0 217.3963,0 217.3963,-36"/>
<text text-anchor="middle" x="187.5" y="-15" font-family="Helvetica,sans-Serif" font-size="10.00" fill="#000000">+Team</text>
</g>
<!-- A5&#45;&gt;A6 -->
<g id="edge6" class="edge">
<title>A5&#45;&gt;A6</title>
<path fill="none" stroke="#000000" d="M168.9697,-113.8466C174.2263,-86.6573 180.2505,-55.4976 183.9658,-36.2804"/>
<text text-anchor="middle" x="188.8238" y="-52.6814" font-family="Helvetica,sans-Serif" font-size="10.00" fill="#000000">0..*</text>
<text text-anchor="middle" x="164.1116" y="-91.4455" font-family="Helvetica,sans-Serif" font-size="10.00" fill="#000000">1</text>
</g>
<!-- A7 -->
<g id="node8" class="node">
<title>A7</title>
<polygon fill="none" stroke="#000000" points="395.2974,-36 291.7026,-36 291.7026,0 395.2974,0 395.2974,-36"/>
<text text-anchor="middle" x="343.5" y="-15" font-family="Helvetica,sans-Serif" font-size="10.00" fill="#000000">+TeamNotFound</text>
</g>
<!-- A5&#45;&gt;A7 -->
<g id="edge7" class="edge">
<title>A5&#45;&gt;A7</title>
<path fill="none" stroke="#000000" d="M225.2892,-113.8466C258.8226,-86.6573 297.253,-55.4976 320.9541,-36.2804"/>
<text text-anchor="middle" x="312.1979" y="-51.2617" font-family="Helvetica,sans-Serif" font-size="10.00" fill="#000000">1</text>
<text text-anchor="middle" x="234.0455" y="-92.8652" font-family="Helvetica,sans-Serif" font-size="10.00" fill="#000000">1</text>
</g>
<!-- A8 -->
<g id="node9" class="node">
<title>A8</title>
<polygon fill="none" stroke="#000000" points="408.3432,-186 334.6568,-186 334.6568,-150 408.3432,-150 408.3432,-186"/>
<text text-anchor="middle" x="371.5" y="-165" font-family="Helvetica,sans-Serif" font-size="10.00" fill="#000000">+A.Teams</text>
</g>
<!-- A8&#45;&gt;A6 -->
<g id="edge8" class="edge">
<title>A8&#45;&gt;A6</title>
<path fill="none" stroke="#000000" stroke-dasharray="5,2" d="M361.0322,-140.3605C353.3369,-123.0001 341.4433,-101.114 325.5,-86 294.1955,-56.324 247.4668,-37.0279 217.2335,-26.8257"/>
<polygon fill="#000000" stroke="#000000" points="365.0769,-149.9737 357.0509,-142.5015 363.1378,-145.365 361.1987,-140.7563 361.1987,-140.7563 361.1987,-140.7563 363.1378,-145.365 365.3465,-139.0111 365.0769,-149.9737 365.0769,-149.9737"/>
</g>
<!-- A8&#45;&gt;A7 -->
<g id="edge9" class="edge">
<title>A8&#45;&gt;A7</title>
<path fill="none" stroke="#000000" stroke-dasharray="5,2" d="M366.2621,-139.9399C360.5904,-109.5557 351.7103,-61.9837 346.8894,-36.1577"/>
<polygon fill="#000000" stroke="#000000" points="368.1225,-149.9065 361.8639,-140.9021 367.205,-144.9914 366.2875,-140.0763 366.2875,-140.0763 366.2875,-140.0763 367.205,-144.9914 370.7111,-139.2505 368.1225,-149.9065 368.1225,-149.9065"/>
</g>
<!-- A9 -->
<g id="node10" class="node">
<title>A9</title>
<polygon fill="none" stroke="#000000" points="989.5,-388 989.5,-420 1213.5,-420 1213.5,-388 989.5,-388"/>
<text text-anchor="start" x="1066.3505" y="-401" font-family="Helvetica,sans-Serif" font-size="10.00" fill="#000000">+RequestQuery</text>
<polygon fill="none" stroke="#000000" points="989.5,-344 989.5,-388 1213.5,-388 1213.5,-344 989.5,-344"/>
<text text-anchor="start" x="1001.4785" y="-369" font-family="Helvetica,sans-Serif" font-size="10.00" fill="#000000">&#45;gameRequests:KeyValuePair&lt;string, string&gt;</text>
<text text-anchor="start" x="1053.014" y="-357" font-family="Helvetica,sans-Serif" font-size="10.00" fill="#000000">=requester:Requester</text>
<polygon fill="none" stroke="#000000" points="989.5,-312 989.5,-344 1213.5,-344 1213.5,-312 989.5,-312"/>
<text text-anchor="start" x="999.1135" y="-325" font-family="Helvetica,sans-Serif" font-size="10.00" fill="#000000">+GameRequests:KeyValuePair&lt;string, string&gt;</text>
</g>
<!-- A9&#45;&gt;A10 -->
<g id="edge11" class="edge">
<title>A9&#45;&gt;A10</title>
<path fill="none" stroke="#000000" d="M1101.5,-311.8956C1101.5,-287.8506 1101.5,-259.3227 1101.5,-234.0343"/>
<text text-anchor="middle" x="1109.9524" y="-249.1605" font-family="Helvetica,sans-Serif" font-size="10.00" fill="#000000">1</text>
<text text-anchor="middle" x="1093.0476" y="-290.7695" font-family="Helvetica,sans-Serif" font-size="10.00" fill="#000000">1</text>
</g>
<!-- A11 -->
<g id="node12" class="node">
<title>A11</title>
<polygon fill="none" stroke="#000000" points="708.5,-526 708.5,-558 813.5,-558 813.5,-526 708.5,-526"/>
<text text-anchor="start" x="728.076" y="-539" font-family="Helvetica,sans-Serif" font-size="10.00" fill="#000000">+UserInterface</text>
<polygon fill="none" stroke="#000000" points="708.5,-482 708.5,-526 813.5,-526 813.5,-482 708.5,-482"/>
<text text-anchor="start" x="718.9115" y="-507" font-family="Helvetica,sans-Serif" font-size="10.00" fill="#000000">+AskToAddTeam()</text>
<text text-anchor="start" x="718.0765" y="-495" font-family="Helvetica,sans-Serif" font-size="10.00" fill="#000000">+AskToAddGame()</text>
</g>
<!-- A11&#45;&gt;A4 -->
<g id="edge13" class="edge">
<title>A11&#45;&gt;A4</title>
<path fill="none" stroke="#000000" d="M760.5,-481.9326C760.5,-466.8798 760.5,-449.1331 760.5,-432.111"/>
<text text-anchor="middle" x="768.9524" y="-447.2372" font-family="Helvetica,sans-Serif" font-size="10.00" fill="#000000">1</text>
<text text-anchor="middle" x="752.0476" y="-460.8064" font-family="Helvetica,sans-Serif" font-size="10.00" fill="#000000">1</text>
</g>
</g>
</svg>
