<?xml version="1.0" encoding="UTF-8" standalone="no"?>
<!DOCTYPE svg PUBLIC "-//W3C//DTD SVG 1.1//EN"
 "http://www.w3.org/Graphics/SVG/1.1/DTD/svg11.dtd">
<!-- Generated by graphviz version 2.40.1 (20161225.0304)
 -->
<!-- Title: G Pages: 1 -->
<svg width="1239pt" height="718pt"
 viewBox="0.00 0.00 1238.50 718.00" xmlns="http://www.w3.org/2000/svg" xmlns:xlink="http://www.w3.org/1999/xlink">
<g id="graph0" class="graph" transform="scale(1 1) rotate(0) translate(4 714)">
<title>G</title>
<polygon fill="#ffffff" stroke="transparent" points="-4,4 -4,-714 1234.5,-714 1234.5,4 -4,4"/>
<!-- A0 -->
<g id="node1" class="node">
<title>A0</title>
<polygon fill="none" stroke="#000000" points="426.5,-224 426.5,-256 548.5,-256 548.5,-224 426.5,-224"/>
<text text-anchor="start" x="463.7435" y="-237" font-family="Helvetica,sans-Serif" font-size="10.00" fill="#000000">+A.Games</text>
<polygon fill="none" stroke="#000000" points="426.5,-180 426.5,-224 548.5,-224 548.5,-180 426.5,-180"/>
<text text-anchor="start" x="459.7205" y="-205" font-family="Helvetica,sans-Serif" font-size="10.00" fill="#000000">&#45;name:string</text>
<text text-anchor="start" x="438.05" y="-193" font-family="Helvetica,sans-Serif" font-size="10.00" fill="#000000">&#45;platforms:List&lt;string&gt;</text>
<polygon fill="none" stroke="#000000" points="426.5,-136 426.5,-180 548.5,-180 548.5,-136 426.5,-136"/>
<text text-anchor="start" x="457.6355" y="-161" font-family="Helvetica,sans-Serif" font-size="10.00" fill="#000000">+Name:string</text>
<text text-anchor="start" x="437.9055" y="-149" font-family="Helvetica,sans-Serif" font-size="10.00" fill="#000000">+Platform:List&lt;String&gt;</text>
<polygon fill="none" stroke="#000000" points="426.5,-92 426.5,-136 548.5,-136 548.5,-92 426.5,-92"/>
<text text-anchor="start" x="458.056" y="-117" font-family="Helvetica,sans-Serif" font-size="10.00" fill="#000000">(name:string)</text>
<text text-anchor="start" x="436.3855" y="-105" font-family="Helvetica,sans-Serif" font-size="10.00" fill="#000000">(platforms:List&lt;string&gt;)</text>
</g>
<!-- A1 -->
<g id="node2" class="node">
<title>A1</title>
<polygon fill="none" stroke="#000000" points="561.065,-36 499.935,-36 499.935,0 561.065,0 561.065,-36"/>
<text text-anchor="middle" x="530.5" y="-15" font-family="Helvetica,sans-Serif" font-size="10.00" fill="#000000">+Game</text>
</g>
<!-- A0&#45;&gt;A1 -->
<g id="edge1" class="edge">
<title>A0&#45;&gt;A1</title>
<path fill="none" stroke="#000000" stroke-dasharray="5,2" d="M512.8313,-82.1003C517.6502,-64.618 522.2037,-48.0983 525.4809,-36.2089"/>
<polygon fill="#000000" stroke="#000000" points="510.1333,-91.8884 508.4525,-81.0521 511.462,-87.0682 512.7907,-82.2479 512.7907,-82.2479 512.7907,-82.2479 511.462,-87.0682 517.1289,-83.4438 510.1333,-91.8884 510.1333,-91.8884"/>
</g>
<!-- A2 -->
<g id="node3" class="node">
<title>A2</title>
<polygon fill="none" stroke="#000000" points="769.967,-36 665.033,-36 665.033,0 769.967,0 769.967,-36"/>
<text text-anchor="middle" x="717.5" y="-15" font-family="Helvetica,sans-Serif" font-size="10.00" fill="#000000">+GameNotFound</text>
</g>
<!-- A0&#45;&gt;A2 -->
<g id="edge2" class="edge">
<title>A0&#45;&gt;A2</title>
<path fill="none" stroke="#000000" stroke-dasharray="5,2" d="M556.6711,-86.6356C556.947,-86.4224 557.2233,-86.2105 557.5,-86 589.5684,-61.6036 631.7018,-44.1596 664.6819,-33.0513"/>
<polygon fill="#000000" stroke="#000000" points="548.8103,-93.1566 553.6337,-83.3085 552.6585,-89.9643 556.5068,-86.7719 556.5068,-86.7719 556.5068,-86.7719 552.6585,-89.9643 559.3799,-90.2354 548.8103,-93.1566 548.8103,-93.1566"/>
</g>
<!-- A3 -->
<g id="node4" class="node">
<title>A3</title>
<polygon fill="none" stroke="#000000" points="566.5,-230 566.5,-262 954.5,-262 954.5,-230 566.5,-230"/>
<text text-anchor="start" x="722.571" y="-243" font-family="Helvetica,sans-Serif" font-size="10.00" fill="#000000">+GameDatabase</text>
<polygon fill="none" stroke="#000000" points="566.5,-186 566.5,-230 954.5,-230 954.5,-186 566.5,-186"/>
<text text-anchor="start" x="675.205" y="-211" font-family="Helvetica,sans-Serif" font-size="10.00" fill="#000000">&#45;games:KeyValuePair&lt;Games, string&gt;</text>
<text text-anchor="start" x="722.1615" y="-199" font-family="Helvetica,sans-Serif" font-size="10.00" fill="#000000">&#45;search:Searcher</text>
<polygon fill="none" stroke="#000000" points="566.5,-130 566.5,-186 954.5,-186 954.5,-130 566.5,-130"/>
<text text-anchor="start" x="720.072" y="-167" font-family="Helvetica,sans-Serif" font-size="10.00" fill="#000000">+Search:Searcher</text>
<text text-anchor="start" x="576.154" y="-155" font-family="Helvetica,sans-Serif" font-size="10.00" fill="#000000">+ReturnSearch(game:KeyValuePair&lt;Game, string&gt;):KeyValuePair&lt;Games, string&gt;</text>
<text text-anchor="start" x="653.1145" y="-143" font-family="Helvetica,sans-Serif" font-size="10.00" fill="#000000">+AddGame(game:KeyValuePair&lt;Game, string&gt;)</text>
<polygon fill="none" stroke="#000000" points="566.5,-86 566.5,-130 954.5,-130 954.5,-86 566.5,-86"/>
<text text-anchor="start" x="757.171" y="-111" font-family="Helvetica,sans-Serif" font-size="10.00" fill="#000000">()</text>
<text text-anchor="start" x="672.1525" y="-99" font-family="Helvetica,sans-Serif" font-size="10.00" fill="#000000">(gameList:KeyValuePair&lt;string, string)&gt;</text>
</g>
<!-- A3&#45;&gt;A1 -->
<g id="edge3" class="edge">
<title>A3&#45;&gt;A1</title>
<path fill="none" stroke="#000000" d="M630.7123,-85.9701C602.7929,-67.0335 576.056,-48.8989 557.2318,-36.1311"/>
<text text-anchor="middle" x="576.9775" y="-36.3107" font-family="Helvetica,sans-Serif" font-size="10.00" fill="#000000">0..*</text>
<text text-anchor="middle" x="610.9666" y="-79.7905" font-family="Helvetica,sans-Serif" font-size="10.00" fill="#000000">1</text>
</g>
<!-- A3&#45;&gt;A2 -->
<g id="edge4" class="edge">
<title>A3&#45;&gt;A2</title>
<path fill="none" stroke="#000000" d="M736.2353,-85.9701C731.0156,-67.0335 726.017,-48.8989 722.4977,-36.1311"/>
<text text-anchor="middle" x="735.4628" y="-48.3596" font-family="Helvetica,sans-Serif" font-size="10.00" fill="#000000">1</text>
<text text-anchor="middle" x="723.2702" y="-67.7416" font-family="Helvetica,sans-Serif" font-size="10.00" fill="#000000">1</text>
</g>
<!-- A4 -->
<g id="node5" class="node">
<title>A4</title>
<polygon fill="none" stroke="#000000" points="576.5,-508 576.5,-540 945.5,-540 945.5,-508 576.5,-508"/>
<text text-anchor="start" x="737.799" y="-521" font-family="Helvetica,sans-Serif" font-size="10.00" fill="#000000">+Searcher</text>
<polygon fill="none" stroke="#000000" points="576.5,-416 576.5,-508 945.5,-508 945.5,-416 576.5,-416"/>
<text text-anchor="start" x="664.5875" y="-489" font-family="Helvetica,sans-Serif" font-size="10.00" fill="#000000">&#45;foundGames:KeyValuePair&lt;Game, string&gt;</text>
<text text-anchor="start" x="701.265" y="-477" font-family="Helvetica,sans-Serif" font-size="10.00" fill="#000000">&#45;foundTeams:List&lt;Teams&gt;</text>
<text text-anchor="start" x="703.4895" y="-465" font-family="Helvetica,sans-Serif" font-size="10.00" fill="#000000">&#45;gameDB:GameDatabase</text>
<text text-anchor="start" x="705.7145" y="-453" font-family="Helvetica,sans-Serif" font-size="10.00" fill="#000000">&#45;teamDB:TeamDatabase</text>
<text text-anchor="start" x="713.769" y="-441" font-family="Helvetica,sans-Serif" font-size="10.00" fill="#000000">&#45;requester:Requester</text>
<text text-anchor="start" x="724.0525" y="-429" font-family="Helvetica,sans-Serif" font-size="10.00" fill="#000000">&#45;ui:UserInterface</text>
<polygon fill="none" stroke="#000000" points="576.5,-312 576.5,-416 945.5,-416 945.5,-312 576.5,-312"/>
<text text-anchor="start" x="721.6875" y="-397" font-family="Helvetica,sans-Serif" font-size="10.00" fill="#000000">+UI:UserInterface</text>
<text text-anchor="start" x="710.569" y="-385" font-family="Helvetica,sans-Serif" font-size="10.00" fill="#000000">+Requester:Requester</text>
<text text-anchor="start" x="701.1245" y="-373" font-family="Helvetica,sans-Serif" font-size="10.00" fill="#000000">+GameDB:GameDatabase</text>
<text text-anchor="start" x="702.7945" y="-361" font-family="Helvetica,sans-Serif" font-size="10.00" fill="#000000">+TeamDB:TeamDatabase</text>
<text text-anchor="start" x="619.17" y="-349" font-family="Helvetica,sans-Serif" font-size="10.00" fill="#000000">+SearchGame(gameName:string):KeyValuePair&lt;Game, Team&gt;</text>
<text text-anchor="start" x="586.1125" y="-337" font-family="Helvetica,sans-Serif" font-size="10.00" fill="#000000">+SearchGame(gameName:string,platform:string):KeyValuePair&lt;Game, Team&gt;</text>
<text text-anchor="start" x="633.338" y="-325" font-family="Helvetica,sans-Serif" font-size="10.00" fill="#000000">+SearchTeam(game:KeyValuePair&lt;Game, string&gt;):Team</text>
</g>
<!-- A4&#45;&gt;A3 -->
<g id="edge5" class="edge">
<title>A4&#45;&gt;A3</title>
<path fill="none" stroke="#000000" d="M760.5,-311.7971C760.5,-295.1281 760.5,-278.1813 760.5,-262.1374"/>
<text text-anchor="middle" x="768.9524" y="-277.2635" font-family="Helvetica,sans-Serif" font-size="10.00" fill="#000000">1</text>
<text text-anchor="middle" x="752.0476" y="-290.671" font-family="Helvetica,sans-Serif" font-size="10.00" fill="#000000">1</text>
</g>
<!-- A5 -->
<g id="node6" class="node">
<title>A5</title>
<polygon fill="none" stroke="#000000" points=".5,-208 .5,-240 317.5,-240 317.5,-208 .5,-208"/>
<text text-anchor="start" x="121.906" y="-221" font-family="Helvetica,sans-Serif" font-size="10.00" fill="#000000">+TeamDatabase</text>
<polygon fill="none" stroke="#000000" points=".5,-164 .5,-208 317.5,-208 317.5,-164 .5,-164"/>
<text text-anchor="start" x="113.4375" y="-189" font-family="Helvetica,sans-Serif" font-size="10.00" fill="#000000">&#45;teams:List&lt;Teams&gt;</text>
<text text-anchor="start" x="120.6615" y="-177" font-family="Helvetica,sans-Serif" font-size="10.00" fill="#000000">&#45;search:Searcher</text>
<polygon fill="none" stroke="#000000" points=".5,-108 .5,-164 317.5,-164 317.5,-108 .5,-108"/>
<text text-anchor="start" x="118.572" y="-145" font-family="Helvetica,sans-Serif" font-size="10.00" fill="#000000">+Search:Searcher</text>
<text text-anchor="start" x="10.226" y="-133" font-family="Helvetica,sans-Serif" font-size="10.00" fill="#000000">+ReturnTeamsByGame(game:KeyValuePair&lt;Game, string&gt;):Team</text>
<text text-anchor="start" x="40.2305" y="-121" font-family="Helvetica,sans-Serif" font-size="10.00" fill="#000000">+AddGameToMyTeam(KeyValuePair&lt;Game, string&gt;)</text>
</g>
<!-- A4&#45;&gt;A5 -->
<g id="edge10" class="edge">
<title>A4&#45;&gt;A5</title>
<path fill="none" stroke="#000000" d="M575.8926,-362.1641C497.7483,-333.665 406.2807,-298.3415 325.5,-262 310.5565,-255.2773 295.0798,-247.8237 279.8482,-240.1812"/>
<text text-anchor="middle" x="299.8409" y="-237.7222" font-family="Helvetica,sans-Serif" font-size="10.00" fill="#000000">1</text>
<text text-anchor="middle" x="555.9637" y="-360.8488" font-family="Helvetica,sans-Serif" font-size="10.00" fill="#000000">1</text>
</g>
<!-- A10 -->
<g id="node11" class="node">
<title>A10</title>
<polygon fill="none" stroke="#000000" points="972.5,-226 972.5,-258 1230.5,-258 1230.5,-226 972.5,-226"/>
<text text-anchor="start" x="1075.5195" y="-239" font-family="Helvetica,sans-Serif" font-size="10.00" fill="#000000">+Requester</text>
<polygon fill="none" stroke="#000000" points="972.5,-170 972.5,-226 1230.5,-226 1230.5,-170 972.5,-170"/>
<text text-anchor="start" x="1010.0885" y="-207" font-family="Helvetica,sans-Serif" font-size="10.00" fill="#000000">&#45;requestInfo:KeyValuePair&lt;string, string&gt;</text>
<text text-anchor="start" x="1061.772" y="-195" font-family="Helvetica,sans-Serif" font-size="10.00" fill="#000000">&#45;rq:RequestQuery</text>
<text text-anchor="start" x="1063.1615" y="-183" font-family="Helvetica,sans-Serif" font-size="10.00" fill="#000000">&#45;search:Searcher</text>
<polygon fill="none" stroke="#000000" points="972.5,-90 972.5,-170 1230.5,-170 1230.5,-90 972.5,-90"/>
<text text-anchor="start" x="1061.072" y="-151" font-family="Helvetica,sans-Serif" font-size="10.00" fill="#000000">+Search:Searcher</text>
<text text-anchor="start" x="1057.462" y="-139" font-family="Helvetica,sans-Serif" font-size="10.00" fill="#000000">+RQ:RequestQuery</text>
<text text-anchor="start" x="1028.293" y="-127" font-family="Helvetica,sans-Serif" font-size="10.00" fill="#000000">+AddRequest(gameName:string)</text>
<text text-anchor="start" x="994.6745" y="-115" font-family="Helvetica,sans-Serif" font-size="10.00" fill="#000000">+AddRequest(gameName:string, console:string)</text>
<text text-anchor="start" x="982.163" y="-103" font-family="Helvetica,sans-Serif" font-size="10.00" fill="#000000">+AddRequest(gameInfo:KeyValuePair&lt;string, string&gt;)</text>
</g>
<!-- A4&#45;&gt;A10 -->
<g id="edge12" class="edge">
<title>A4&#45;&gt;A10</title>
<path fill="none" stroke="#000000" d="M915.0364,-311.7971C939.5309,-293.6956 964.4687,-275.2665 987.8038,-258.0218"/>
<text text-anchor="middle" x="978.2498" y="-272.5922" font-family="Helvetica,sans-Serif" font-size="10.00" fill="#000000">1</text>
<text text-anchor="middle" x="924.5905" y="-291.2267" font-family="Helvetica,sans-Serif" font-size="10.00" fill="#000000">1</text>
</g>
<!-- A6 -->
<g id="node7" class="node">
<title>A6</title>
<polygon fill="none" stroke="#000000" points="217.3963,-36 157.6037,-36 157.6037,0 217.3963,0 217.3963,-36"/>
<text text-anchor="middle" x="187.5" y="-15" font-family="Helvetica,sans-Serif" font-size="10.00" fill="#000000">+Team</text>
</g>
<!-- A5&#45;&gt;A6 -->
<g id="edge6" class="edge">
<title>A5&#45;&gt;A6</title>
<path fill="none" stroke="#000000" d="M170.7986,-107.842C175.646,-81.7666 180.8294,-53.8835 184.1135,-36.2172"/>
<text text-anchor="middle" x="189.1106" y="-52.5829" font-family="Helvetica,sans-Serif" font-size="10.00" fill="#000000">0..*</text>
<text text-anchor="middle" x="165.8015" y="-85.4763" font-family="Helvetica,sans-Serif" font-size="10.00" fill="#000000">1</text>
</g>
<!-- A7 -->
<g id="node8" class="node">
<title>A7</title>
<polygon fill="none" stroke="#000000" points="395.2974,-36 291.7026,-36 291.7026,0 395.2974,0 395.2974,-36"/>
<text text-anchor="middle" x="343.5" y="-15" font-family="Helvetica,sans-Serif" font-size="10.00" fill="#000000">+TeamNotFound</text>
</g>
<!-- A5&#45;&gt;A7 -->
<g id="edge7" class="edge">
<title>A5&#45;&gt;A7</title>
<path fill="none" stroke="#000000" d="M236.9567,-107.842C267.8794,-81.7666 300.9459,-53.8835 321.8962,-36.2172"/>
<text text-anchor="middle" x="313.4879" y="-51.3639" font-family="Helvetica,sans-Serif" font-size="10.00" fill="#000000">1</text>
<text text-anchor="middle" x="245.365" y="-86.6953" font-family="Helvetica,sans-Serif" font-size="10.00" fill="#000000">1</text>
</g>
<!-- A8 -->
<g id="node9" class="node">
<title>A8</title>
<polygon fill="none" stroke="#000000" points="408.3432,-192 334.6568,-192 334.6568,-156 408.3432,-156 408.3432,-192"/>
<text text-anchor="middle" x="371.5" y="-171" font-family="Helvetica,sans-Serif" font-size="10.00" fill="#000000">+A.Teams</text>
</g>
<!-- A8&#45;&gt;A6 -->
<g id="edge8" class="edge">
<title>A8&#45;&gt;A6</title>
<path fill="none" stroke="#000000" stroke-dasharray="5,2" d="M362.2035,-146.1547C354.7355,-127.2515 342.6466,-102.7428 325.5,-86 294.6376,-55.8645 247.7932,-36.6886 217.4142,-26.6379"/>
<polygon fill="#000000" stroke="#000000" points="365.7847,-155.7259 358.0656,-147.9371 364.0325,-151.043 362.2803,-146.3601 362.2803,-146.3601 362.2803,-146.3601 364.0325,-151.043 366.4949,-144.7831 365.7847,-155.7259 365.7847,-155.7259"/>
</g>
<!-- A8&#45;&gt;A7 -->
<g id="edge9" class="edge">
<title>A8&#45;&gt;A7</title>
<path fill="none" stroke="#000000" stroke-dasharray="5,2" d="M366.436,-145.7865C360.7174,-113.9253 351.581,-63.0226 346.7459,-36.0846"/>
<polygon fill="#000000" stroke="#000000" points="368.2332,-155.7995 362.0373,-146.7518 367.3499,-150.8782 366.4665,-145.9568 366.4665,-145.9568 366.4665,-145.9568 367.3499,-150.8782 370.8957,-145.1618 368.2332,-155.7995 368.2332,-155.7995"/>
</g>
<!-- A9 -->
<g id="node10" class="node">
<title>A9</title>
<polygon fill="none" stroke="#000000" points="989.5,-442 989.5,-474 1213.5,-474 1213.5,-442 989.5,-442"/>
<text text-anchor="start" x="1066.3505" y="-455" font-family="Helvetica,sans-Serif" font-size="10.00" fill="#000000">+RequestQuery</text>
<polygon fill="none" stroke="#000000" points="989.5,-410 989.5,-442 1213.5,-442 1213.5,-410 989.5,-410"/>
<text text-anchor="start" x="1001.4785" y="-423" font-family="Helvetica,sans-Serif" font-size="10.00" fill="#000000">&#45;gameRequests:KeyValuePair&lt;string, string&gt;</text>
<polygon fill="none" stroke="#000000" points="989.5,-378 989.5,-410 1213.5,-410 1213.5,-378 989.5,-378"/>
<text text-anchor="start" x="999.1135" y="-391" font-family="Helvetica,sans-Serif" font-size="10.00" fill="#000000">+GameRequests:KeyValuePair&lt;string, string&gt;</text>
</g>
<!-- A9&#45;&gt;A10 -->
<g id="edge11" class="edge">
<title>A9&#45;&gt;A10</title>
<path fill="none" stroke="#000000" d="M1101.5,-377.71C1101.5,-343.9107 1101.5,-297.8716 1101.5,-258.1118"/>
<text text-anchor="middle" x="1109.9524" y="-273.2379" font-family="Helvetica,sans-Serif" font-size="10.00" fill="#000000">1</text>
<text text-anchor="middle" x="1093.0476" y="-356.5839" font-family="Helvetica,sans-Serif" font-size="10.00" fill="#000000">1</text>
</g>
<!-- A11 -->
<g id="node12" class="node">
<title>A11</title>
<polygon fill="none" stroke="#000000" points="708.5,-678 708.5,-710 813.5,-710 813.5,-678 708.5,-678"/>
<text text-anchor="start" x="728.076" y="-691" font-family="Helvetica,sans-Serif" font-size="10.00" fill="#000000">+UserInterface</text>
<polygon fill="none" stroke="#000000" points="708.5,-646 708.5,-678 813.5,-678 813.5,-646 708.5,-646"/>
<text text-anchor="start" x="722.6615" y="-659" font-family="Helvetica,sans-Serif" font-size="10.00" fill="#000000">&#45;search:Searcher</text>
<polygon fill="none" stroke="#000000" points="708.5,-590 708.5,-646 813.5,-646 813.5,-590 708.5,-590"/>
<text text-anchor="start" x="720.572" y="-627" font-family="Helvetica,sans-Serif" font-size="10.00" fill="#000000">+Search:Searcher</text>
<text text-anchor="start" x="718.9115" y="-615" font-family="Helvetica,sans-Serif" font-size="10.00" fill="#000000">+AskToAddTeam()</text>
<text text-anchor="start" x="718.0765" y="-603" font-family="Helvetica,sans-Serif" font-size="10.00" fill="#000000">+AskToAddGame()</text>
</g>
<!-- A11&#45;&gt;A4 -->
<g id="edge13" class="edge">
<title>A11&#45;&gt;A4</title>
<path fill="none" stroke="#000000" d="M760.5,-589.9721C760.5,-574.5506 760.5,-557.4399 760.5,-540.2583"/>
<text text-anchor="middle" x="768.9524" y="-555.3844" font-family="Helvetica,sans-Serif" font-size="10.00" fill="#000000">1</text>
<text text-anchor="middle" x="752.0476" y="-568.846" font-family="Helvetica,sans-Serif" font-size="10.00" fill="#000000">1</text>
</g>
</g>
</svg>
